<svg width="400" height="105" viewBox="0 0 400 105" fill="none" xmlns="http://www.w3.org/2000/svg"> <g clip-path="url(#clip0_31_111)"> <path d="M55.1958 23.6808C54.5453 23.5856 53.8908 23.5341 53.2482 23.5341C43.5735 23.5341 36.6518 34.1448 34.125 38.7104C33.5855 39.6823 33.6768 40.8762 34.3511 41.7529C34.9223 42.4906 35.8108 42.8913 36.743 42.8199C37.6791 42.7485 38.5081 42.2169 38.9683 41.3959C41.503 36.862 46.727 29.254 53.2759 29.254C53.6329 29.254 53.9939 29.2817 54.3469 29.3373C59.69 30.1385 62.6055 39.7299 61.6019 53.2006C60.2533 71.3083 52.1772 90.6933 42.3042 90.6933C28.0124 90.6933 10.3529 68.6705 6.45769 51.3125C5.2082 45.7433 4.9107 38.5438 10.6068 35.8505C11.3962 35.4776 12.2728 35.2912 13.2049 35.2912C19.9601 35.2912 28.5241 44.5255 32.8993 53.4505C35.8426 59.452 35.6006 62.8157 34.8271 63.2084C34.6883 63.2798 34.5137 63.3155 34.3075 63.3155C32.1853 63.3155 27.4174 59.6424 23.2167 54.7674C22.2172 53.6091 20.4917 53.4346 19.2898 54.3787C18.667 54.8626 18.2862 55.5607 18.2069 56.3461C18.1275 57.1315 18.3695 57.8971 18.8852 58.496C22.2568 62.419 28.7581 68.9997 34.4384 68.9997C35.5054 68.9997 36.509 68.7657 37.4173 68.3016C41.9948 65.9771 42.2249 59.4837 38.0321 50.9317C32.9548 40.5748 22.5107 29.5634 13.1653 29.5634C11.416 29.5634 9.73413 29.9402 8.16334 30.682C1.05512 34.0417 -1.53113 41.8123 0.880592 52.5619C5.30736 72.2999 25.2953 96.4052 42.3042 96.4052C57.3457 96.4052 65.9771 71.3876 67.302 53.621C68.5991 36.2035 64.0731 25.0097 55.1958 23.6769V23.6808Z" fill="#009FE3"/> <path d="M50.7889 16.4854C51.4157 16.6242 52.0503 16.6916 52.6731 16.6916C54.8865 16.6916 57.0086 15.8348 58.5953 14.2521C60.6262 12.2212 61.4632 9.30177 60.8285 6.44182C60.1502 3.39147 57.6473 0.884558 54.5969 0.206262C51.7409 -0.4284 48.8215 0.408561 46.7866 2.43948C44.7557 4.4704 43.9187 7.38985 44.5534 10.2498C45.2317 13.3001 47.7346 15.8071 50.7889 16.4814V16.4854Z" fill="#009FE3"/> <path d="M7.97686 23.0462C8.60755 23.185 9.23825 23.2524 9.86101 23.2524C12.0744 23.2524 14.2005 22.3956 15.7832 20.809C17.8141 18.7781 18.6511 15.8586 18.0164 13.0026C17.3381 9.9523 14.8352 7.44538 11.7848 6.76708C8.92885 6.13242 6.0094 6.96938 3.97848 9.0003C1.94756 11.0312 1.1106 13.9507 1.74526 16.8067C2.42356 19.857 4.92651 22.3639 7.97686 23.0422V23.0462Z" fill="#009FE3"/> <path d="M85.5683 32.6336C82.5457 32.6336 80.0903 35.0929 80.0903 38.1115C80.0903 41.1301 82.4981 43.6687 85.5683 43.6687C88.6384 43.6687 91.0462 41.2293 91.0462 38.1115C91.0462 34.9937 88.5869 32.6336 85.5683 32.6336Z" fill="#0B236D"/> <path d="M90.5821 49.111H80.5583V88.8091H90.5821V49.111Z" fill="#0B236D"/> <path d="M142.267 48.4089C136.385 48.4089 131.918 50.4319 128.991 54.4183C126.064 50.4279 121.597 48.4089 115.715 48.4089C102.391 48.4089 97.4285 58.7182 97.4285 65.2116V88.8091H107.452V65.4456C107.452 59.7535 111.72 57.7265 115.719 57.7265C119.717 57.7265 123.985 59.7535 123.985 65.4456V88.8091H134.009V65.4456C134.009 59.7535 138.277 57.7265 142.275 57.7265C146.274 57.7265 150.542 59.7535 150.542 65.4456V88.8091H160.565V65.2116C160.565 58.7142 155.599 48.4089 142.279 48.4089H142.267Z" fill="#0B236D"/> <path d="M188.189 48.4882C175.996 48.4882 167.479 56.8737 167.479 68.8847V104.43H177.503V85.5327C179.859 87.988 183.945 89.4358 188.657 89.4358C200.343 89.4358 208.506 80.9829 208.506 68.8847C208.506 56.7864 200.343 48.4882 188.189 48.4882ZM198.483 68.96C198.483 75.8858 194.449 80.1936 187.951 80.1936C181.454 80.1936 177.499 75.8898 177.499 68.96C177.499 62.0303 181.506 57.7265 187.951 57.7265C194.397 57.7265 198.483 62.0303 198.483 68.96Z" fill="#0B236D"/> <path d="M234.655 48.5636C222.409 48.5636 214.179 56.7587 214.179 68.9601C214.179 81.1614 222.31 89.5112 233.948 89.5112C238.708 89.5112 242.822 88.0674 245.182 85.608V88.8091H255.202V69.1187C255.202 56.8261 246.943 48.5676 234.651 48.5676L234.655 48.5636ZM234.734 80.2729C228.24 80.2729 224.202 75.9691 224.202 69.0394C224.202 62.1097 228.236 57.8059 234.734 57.8059C241.231 57.8059 245.186 62.1097 245.186 69.0394C245.186 75.9691 241.18 80.2729 234.734 80.2729Z" fill="#0B236D"/> <path d="M291.365 74.2277C289.759 78.127 286.344 80.2729 281.75 80.2729C275.304 80.2729 271.298 75.9691 271.298 69.0394C271.298 62.1097 275.304 57.8059 281.75 57.8059C286.296 57.8059 289.683 59.8725 291.29 63.621L291.373 63.8193H301.758L301.667 63.4226C299.576 54.2597 291.972 48.5676 281.826 48.5676C269.533 48.5676 261.274 56.7626 261.274 68.964C261.274 81.1654 269.533 89.5152 281.826 89.5152C292.099 89.5152 299.545 83.8746 301.742 74.4261L301.833 74.0254H291.445L291.361 74.2277H291.365Z" fill="#0B236D"/> <path d="M317.684 70.4436V58.3533H326.585V49.111H317.684V33.4943H307.661V70.5229C307.661 82.8433 314.551 89.3565 327.589 89.3565H327.914V80.1142H327.589C320.461 80.1142 317.684 77.4011 317.684 70.4436Z" fill="#0B236D"/> <path d="M352.19 48.5636C339.945 48.5636 331.714 56.7587 331.714 68.9601C331.714 81.1614 339.846 89.5112 351.484 89.5112C356.244 89.5112 360.357 88.0674 362.718 85.608V88.8091H372.737V69.1187C372.737 56.8261 364.479 48.5676 352.186 48.5676L352.19 48.5636ZM352.269 80.2729C345.776 80.2729 341.738 75.9691 341.738 69.0394C341.738 62.1097 345.772 57.8059 352.269 57.8059C358.767 57.8059 362.722 62.1097 362.722 69.0394C362.722 75.9691 358.715 80.2729 352.269 80.2729Z" fill="#0B236D"/> <path d="M399.675 48.4089C387.16 48.4089 379.98 55.0451 379.98 66.6197V88.8091H390.004V66.6197C390.004 60.7531 393.348 57.6512 399.675 57.6512H400V48.4089H399.675Z" fill="#0B236D"/> <path d="M153.045 33.3475C151.597 29.4126 147.952 27.3381 142.204 27.1754C140.225 27.1278 139.963 26.8581 139.959 26.8978C139.959 26.8819 139.947 26.7431 140.11 26.1798C140.237 25.7435 140.415 25.2556 140.637 24.7399C142.529 20.6464 143.105 16.6242 142.343 12.7805L142.2 12.0625C141.946 10.9083 141.696 10.0475 141.454 9.5001C141.208 8.9527 140.8 8.32597 140.249 7.64768C138.519 5.31529 135.992 3.7207 132.748 2.90754C131.022 2.43155 129.455 2.17768 128.091 2.14595C126.714 2.11421 125.1 2.28081 123.295 2.63781L123.109 2.67351C119.697 3.34784 116.274 4.74806 112.934 6.83848C107.587 10.0713 105.247 12.3362 105.572 13.9665C105.683 14.5298 106.036 15.1446 106.647 15.8428C107.246 16.529 107.833 16.9931 108.385 17.2271C109.003 17.473 109.638 17.5405 110.273 17.4135C110.971 17.2747 111.673 16.9138 112.351 16.3426C113.319 15.5651 114.707 14.6091 116.476 13.5024C118.257 12.3918 119.757 11.5152 120.919 10.9083C122.835 10.0237 124.775 9.3811 126.683 9.00427L127.194 8.9051C129.273 8.57191 131.09 8.60761 132.601 9.0122C133.874 9.34143 134.691 9.77776 135.024 10.3133C135.381 10.8884 135.616 11.4517 135.723 11.9832C135.85 12.6258 135.885 13.3874 135.83 14.264C135.77 17.6912 134.231 21.519 131.252 25.6443C129.967 27.4333 128.698 28.9803 127.476 30.2456C126.044 31.7252 125.433 32.106 125.116 32.2012C125.108 32.1893 125.092 32.1774 125.076 32.1536C125.04 32.106 124.973 31.9791 124.917 31.6816L124.564 29.8966C124.441 29.1429 124.279 28.1274 124.081 26.8462L123.283 22.0069C123.013 20.3806 122.795 19.1351 122.629 18.2981L122.01 15.1645L120.729 14.3791C119.789 13.8396 118.944 13.6413 118.218 13.7801C117.956 13.8317 117.71 13.9269 117.504 14.0578C116.615 14.5853 116.155 15.6206 116.147 17.1478C116.25 20.4242 116.96 25.442 118.269 32.0584C118.531 33.3832 118.821 34.7795 119.134 36.2432C120.007 40.4082 120.76 43.6291 121.371 45.8147C121.982 47.9963 122.704 50.055 123.517 51.9273C123.791 52.554 123.981 53.03 124.081 53.3354C124.176 53.6369 124.243 53.8828 124.283 54.0732L124.33 54.3033C124.346 54.4937 124.322 54.7079 124.247 54.9776C124.2 55.2831 124.168 55.5964 124.152 55.9217C124.136 56.2668 124.144 56.5326 124.184 56.7349C124.303 57.3298 124.691 57.9526 125.374 58.6468C125.754 59.0315 126.147 59.3489 126.544 59.5988L127.436 60.051C127.829 60.1462 128.257 60.1938 128.71 60.1938C129.162 60.1938 129.685 60.1422 130.217 60.0391C131.689 59.7495 133.418 59.0633 135.366 57.9963C137.047 57.0125 138.975 55.6718 141.093 54.0098C143.216 52.3478 145.151 50.6778 146.857 49.0396C150.197 45.6203 152.339 42.451 153.231 39.6109C153.505 38.5756 153.632 37.6037 153.604 36.7271C153.576 35.8505 153.517 35.1682 153.414 34.6526C153.323 34.1885 153.196 33.7482 153.033 33.3475H153.045ZM126.925 40.8643C126.956 40.5113 127.127 40.0115 128.222 39.7933C128.341 39.7695 128.559 39.7061 129.118 39.4086C129.503 39.2023 129.908 38.9643 130.316 38.6906C131.903 37.5918 133.715 36.6518 135.711 35.9021C137.714 35.1484 139.527 34.6089 141.093 34.3035C141.585 34.2043 142.069 34.125 142.541 34.0536C143.354 33.9386 144.033 33.8791 144.564 33.8791C144.921 33.8791 145.211 33.9068 145.437 33.9584C145.917 34.0734 146.191 34.3352 146.306 34.8073C146.591 36.2432 145.552 38.3891 143.216 41.1817C140.836 44.0297 137.599 46.9452 133.604 49.8369C132.113 50.9198 131.542 51.245 131.32 51.3323C130.887 51.4989 130.725 51.5425 130.661 51.5544C130.3 51.6298 130.173 51.5187 130.149 51.4949C130.078 51.4235 129.86 51.1141 129.384 49.8131C129.023 48.8254 128.638 47.6711 128.242 46.3819C127.849 45.1007 127.559 44.0892 127.381 43.3831C127.202 42.6771 127.087 42.1852 127.036 41.9155C126.905 41.2491 126.913 40.9833 126.933 40.8643H126.925Z" fill="#009FE3"/> <path d="M183.088 28.3734C182.819 27.0168 182.497 25.8427 182.12 24.8827C181.569 23.5698 180.673 22.1101 179.451 20.5472C177.162 17.4929 174.592 15.7079 171.819 15.2438C171.065 15.097 170.359 15.0415 169.721 15.0931C169.098 15.1367 168.194 15.2755 167.039 15.5016C166.179 15.6722 165.508 15.819 165.048 15.934C164.576 16.053 164.164 16.2196 163.822 16.4298C163.493 16.6321 163.1 16.9257 162.648 17.3025C158.578 20.7416 156.968 25.9894 157.857 32.8993C157.92 33.3594 157.995 33.8037 158.079 34.2321C158.9 38.3891 160.625 41.8877 163.212 44.6287C166.079 47.6949 169.626 49.4362 173.739 49.8051C174.076 49.8448 174.405 49.8646 174.735 49.8646C175.234 49.8646 175.726 49.817 176.198 49.7258C178.309 49.3093 180.026 47.9131 181.299 45.5846C183.735 41.6894 184.437 36.4852 183.39 30.1108C183.295 29.5039 183.195 28.9208 183.084 28.3694L183.088 28.3734ZM176.924 34.5177C176.825 36.0488 176.516 37.5403 176.008 38.9445C175.508 40.3288 174.889 41.4038 174.187 42.1218C173.751 42.5145 173.231 42.7683 172.64 42.8873C172.113 42.9905 171.526 42.9706 170.899 42.8318C169.538 42.5145 168.336 41.737 167.349 40.547C166.246 39.0317 165.469 37.1674 165.04 35.0016C164.909 34.3471 164.81 33.645 164.743 32.9191C164.465 29.845 164.889 27.2865 165.996 25.323C166.805 24.022 167.654 23.1493 168.515 22.7249C169.403 22.2846 170.117 22.0109 170.637 21.9078C170.99 21.8403 171.339 21.8046 171.68 21.8046C172.041 21.8046 172.394 21.8443 172.727 21.9157C173.933 22.3243 175.048 23.7324 176.028 26.0807C176.19 26.5249 176.337 27.0684 176.46 27.6911C176.587 28.3337 176.69 29.0596 176.773 29.8569C176.956 31.4277 177.007 32.9945 176.924 34.5137V34.5177Z" fill="#009FE3"/> <path d="M211.406 9.01617C209.308 6.66791 206.555 5.80715 203.231 6.46165C202.699 6.56478 202.152 6.71155 201.601 6.90195C199.324 7.67148 197.396 9.30176 195.869 11.7492C195.46 12.3878 195.091 12.9074 194.778 13.2843C194.56 13.5223 194.429 13.6413 194.361 13.6968C194.33 13.669 194.286 13.6254 194.235 13.5619C194.108 13.4072 193.989 13.2327 193.897 13.074C193.441 12.0268 192.755 11.2732 191.851 10.8329C191.045 10.46 190.252 10.341 189.49 10.4957C189.439 10.5076 189.201 10.5751 188.78 10.6941C188.253 10.8488 187.864 11.4239 187.586 12.4949C187.479 13.3319 187.658 14.9225 188.138 17.3501C188.213 17.7229 188.435 18.786 188.808 20.5432C189.177 22.2965 189.895 25.0216 190.93 28.6431C191.97 32.2765 193.025 35.4538 194.06 38.0877C195.321 41.2332 196.888 42.9944 198.717 43.3236H198.725C198.872 43.3474 199.022 43.3593 199.169 43.3593C199.347 43.3593 199.522 43.3435 199.693 43.3078C200.22 43.2046 200.68 42.9032 201.037 42.4351C201.188 42.2685 201.248 41.9908 201.236 41.503C201.224 41.1103 201.148 40.4915 201.01 39.6545C200.871 38.8255 200.656 37.6712 200.367 36.1956C200.046 34.5653 199.808 33.2722 199.665 32.344C199.522 31.4356 199.435 30.6185 199.399 29.9243C199.363 29.2421 199.379 28.4051 199.447 27.4333C199.574 21.88 200.426 18.0204 201.989 15.938C203.092 14.2601 204.409 13.2525 205.904 12.9312L206.166 12.8797C206.551 12.8003 206.896 12.7884 207.19 12.8321C207.487 12.8797 207.927 13.0542 208.503 13.3557C209.498 13.8634 210.303 14.0459 210.954 13.915C211.442 13.8198 211.834 13.5342 212.12 13.074C212.441 12.5623 212.525 11.9158 212.378 11.1621C212.231 10.4204 211.91 9.70636 211.402 9.00823L211.406 9.01617Z" fill="#009FE3"/> <path d="M247.427 31.5784C247.352 31.1976 247.205 30.801 246.983 30.4003C246.507 29.5316 245.801 28.8335 244.877 28.3297L244.841 28.3139C244.337 28.1116 243.948 27.7903 243.647 27.3262C243.334 26.8423 243.004 25.8903 242.667 24.498C242.322 23.0819 241.842 20.8011 241.235 17.719L239.613 9.48821L237.935 7.26689C235.242 3.72864 232.163 2.26892 228.776 2.93928C228.518 2.99085 228.248 3.05828 227.963 3.14158C225.428 3.93491 223.465 5.52553 222.132 7.86188C220.819 10.1625 219.946 12.5624 219.538 14.986C218.955 17.6992 218.649 20.2219 218.625 22.479C218.602 24.736 218.732 26.5963 219.01 28.0084C219.288 29.4206 219.724 30.8089 220.307 32.1536C221.136 33.8156 222.243 35.2515 223.599 36.4217C224.964 37.6077 226.38 38.3257 227.8 38.5597C228.114 38.6113 228.427 38.6351 228.736 38.6351C229.097 38.6351 229.458 38.5994 229.815 38.5319C232.378 38.0242 234.722 35.676 236.781 31.5546C237.034 31.0826 237.284 30.6621 237.522 30.3051C237.665 30.0909 237.756 29.9759 237.804 29.9204C237.875 29.9719 238.002 30.079 238.217 30.2893C238.57 30.6463 238.966 31.0905 239.387 31.5983C241.065 33.7283 242.703 34.8509 244.246 34.9263C244.539 34.9501 244.833 34.9421 245.111 34.8866C245.499 34.8112 245.864 34.6645 246.186 34.4622C246.785 34.1131 247.189 33.6569 247.387 33.0897C247.522 32.6058 247.538 32.0941 247.435 31.5705L247.427 31.5784ZM227.253 31.3008C227.138 31.3246 227.043 31.3008 226.947 31.2413C226.725 31.0945 226.408 30.6463 226.154 29.3611L226.118 29.1826C225.833 27.4809 225.761 25.4024 225.9 23.0026C226.039 20.5948 226.42 18.2545 227.027 16.053C227.852 13.439 228.728 11.6778 229.633 10.821C230.751 9.75794 231.323 9.46837 231.608 9.41284C231.691 9.39697 231.775 9.38904 231.85 9.38904C232.235 9.38904 232.56 9.58737 232.838 9.98404C232.957 10.2101 233.076 10.46 233.191 10.7258C233.302 10.9797 233.373 11.1859 233.401 11.3327C233.449 11.5628 233.453 12.2807 233.219 14.3791C233.028 16.0808 232.778 17.8856 232.473 19.734C232.167 21.5785 231.894 23.0025 231.652 23.9664C231.255 25.3111 230.696 26.6796 229.982 28.0243C229.28 29.3571 228.613 30.2893 228.014 30.793C227.844 30.9239 227.669 31.0429 227.495 31.154C227.304 31.269 227.245 31.2968 227.249 31.2968L227.253 31.3008Z" fill="#009FE3"/> </g> <defs> <clipPath id="clip0_31_111"> <rect width="400" height="104.43" fill="white"/> </clipPath> </defs> </svg>