<svg width="199" height="60" viewBox="0 0 199 60" fill="none" xmlns="http://www.w3.org/2000/svg">
<path d="M184.27 43.3983C184.242 43.3094 184.173 43.2667 184.065 43.2667H182.527C182.427 43.2667 182.362 43.3094 182.333 43.3983L179.661 50.1571C179.607 50.2852 179.65 50.3492 179.794 50.3492H181.166C181.267 50.3492 181.332 50.3065 181.361 50.2176L181.771 49.1148H184.832L185.243 50.2176C185.272 50.3065 185.333 50.3492 185.426 50.3492H186.82C186.95 50.3492 186.993 50.2852 186.953 50.1571L184.27 43.3983ZM182.315 47.667L183.287 45.056H183.32L184.292 47.667H182.315ZM149.467 43.4268V44.622C149.467 44.7288 149.413 44.7857 149.305 44.7857H147.45V50.1891C147.45 50.2958 147.396 50.3528 147.288 50.3528H145.966C145.858 50.3528 145.804 50.2994 145.804 50.1891V44.7857H143.961C143.845 44.7857 143.788 44.7323 143.788 44.622V43.4268C143.788 43.3201 143.845 43.2632 143.961 43.2632H149.309C149.417 43.2632 149.471 43.3165 149.471 43.4268H149.467ZM137.73 43.4268V50.1856C137.73 50.2923 137.673 50.3492 137.557 50.3492H136.236C136.128 50.3492 136.074 50.2958 136.074 50.1856V43.4268C136.074 43.3201 136.128 43.2632 136.236 43.2632H137.557C137.673 43.2632 137.73 43.3165 137.73 43.4268ZM138.497 33.1037V38.4929C138.497 38.9056 138.159 39.2435 137.737 39.2435H134.464C129.912 39.2435 126.155 37.8277 123.3 35.0353C120.44 32.2393 118.992 28.6607 118.992 24.4027C118.992 20.1447 120.426 16.687 123.256 13.891C126.087 11.095 129.775 9.67925 134.222 9.67925H137.698C138.116 9.67925 138.458 10.0136 138.458 10.4298V15.8191C138.458 16.2317 138.119 16.5696 137.698 16.5696H134.424C131.892 16.5696 129.933 17.2989 128.439 18.8C126.941 20.3047 126.209 22.1367 126.209 24.4027C126.209 26.6686 126.941 28.586 128.439 30.1085C129.933 31.6203 131.903 32.3567 134.464 32.3567H137.737C138.155 32.3567 138.497 32.6911 138.497 33.1073V33.1037ZM161.485 43.4268V47.475C161.485 48.4319 161.222 49.1718 160.696 49.6947C160.17 50.2176 159.428 50.4773 158.474 50.4773C157.52 50.4773 156.778 50.2176 156.256 49.6947C155.733 49.1718 155.47 48.4319 155.47 47.475V43.4268C155.47 43.3201 155.524 43.2632 155.633 43.2632H156.954C157.069 43.2632 157.127 43.3165 157.127 43.4268V47.3611C157.127 47.8947 157.239 48.286 157.458 48.535C157.682 48.784 158.017 48.9085 158.467 48.9085C158.917 48.9085 159.255 48.784 159.482 48.535C159.709 48.286 159.821 47.8947 159.821 47.3611V43.4268C159.821 43.3201 159.875 43.2632 159.983 43.2632H161.305C161.42 43.2632 161.478 43.3165 161.478 43.4268H161.485ZM146.953 39.2471H141.296C140.878 39.2471 140.536 38.9127 140.536 38.4965V10.4298C140.536 10.0172 140.874 9.67925 141.296 9.67925H146.953C147.371 9.67925 147.713 10.0136 147.713 10.4298V38.4965C147.713 38.9091 147.375 39.2471 146.953 39.2471ZM172.598 47.82C172.98 47.6244 173.276 47.3433 173.481 46.9769C173.686 46.6105 173.787 46.1872 173.787 45.707C173.787 44.9458 173.542 44.3481 173.049 43.9177C172.555 43.4873 171.871 43.2703 170.989 43.2703H168.183C168.075 43.2703 168.021 43.3236 168.021 43.4339V50.1927C168.021 50.2994 168.075 50.3563 168.183 50.3563H169.505C169.62 50.3563 169.678 50.303 169.678 50.1927V48.1793H170.078C170.632 48.1793 171.061 48.3322 171.363 48.6346C171.666 48.937 171.889 49.4599 172.033 50.2034C172.055 50.303 172.116 50.3563 172.217 50.3563H173.701C173.823 50.3563 173.873 50.2958 173.855 50.1749C173.679 49.0757 173.258 48.2931 172.595 47.8271L172.598 47.82ZM170.949 46.6461H169.678V44.775H170.949C171.705 44.775 172.087 45.0845 172.087 45.707C172.087 46.3295 171.709 46.6461 170.949 46.6461ZM158.344 16.5696V21.2972H166.8C167.218 21.2972 167.56 21.6316 167.56 22.0478V27.2378C167.56 27.6504 167.222 27.9884 166.8 27.9884H158.344V38.4965C158.344 38.9091 158.006 39.2471 157.584 39.2471H151.927C151.509 39.2471 151.167 38.9127 151.167 38.4965V10.4298C151.167 10.0172 151.505 9.67925 151.927 9.67925H167.326C167.744 9.67925 168.086 10.0136 168.086 10.4298V15.8191C168.086 16.2317 167.747 16.5696 167.326 16.5696H158.344ZM187.119 10.4298V15.8191C187.119 16.2317 186.781 16.5696 186.359 16.5696H177.377V21.2972H185.833C186.251 21.2972 186.593 21.6316 186.593 22.0478V27.2378C186.593 27.6504 186.255 27.9884 185.833 27.9884H177.377V32.3567H186.359C186.777 32.3567 187.119 32.6911 187.119 33.1073V38.4965C187.119 38.9091 186.781 39.2471 186.359 39.2471H170.96C170.542 39.2471 170.2 38.9127 170.2 38.4965V10.4298C170.2 10.0172 170.538 9.67925 170.96 9.67925H186.359C186.777 9.67925 187.119 10.0136 187.119 10.4298ZM129.764 49.0117V50.1856C129.764 50.2923 129.71 50.3492 129.602 50.3492H124.798C124.69 50.3492 124.636 50.2958 124.636 50.1856V43.4268C124.636 43.3201 124.69 43.2632 124.798 43.2632H129.562C129.67 43.2632 129.724 43.3165 129.724 43.4268V44.6007C129.724 44.7145 129.67 44.7714 129.562 44.7714H126.296V46.0663H128.846C128.954 46.0663 129.008 46.1232 129.008 46.237V47.3718C129.008 47.4856 128.954 47.5425 128.846 47.5425H126.296V48.8374H129.606C129.714 48.8374 129.768 48.8943 129.768 49.0081L129.764 49.0117ZM185.164 0H13.8364C6.20513 0 0 6.12913 0 13.6669V46.3331C0 53.8673 6.20513 60 13.8364 60H185.164C192.791 60 199 53.8709 199 46.3331V13.6669C199 6.13268 192.795 0 185.164 0ZM195.874 46.3295C195.874 52.1634 191.07 56.9088 185.164 56.9088H13.8364C7.93018 56.9088 3.12598 52.1634 3.12598 46.3295V13.6669C3.12598 7.83305 7.93018 3.08769 13.8364 3.08769H185.164C191.07 3.08769 195.874 7.83305 195.874 13.6669V46.3331V46.3295ZM94.3015 47.8164C94.6832 47.6208 94.9785 47.3398 95.1838 46.9734C95.3891 46.607 95.4899 46.1837 95.4899 45.7034C95.4899 44.9422 95.245 44.3446 94.7516 43.9142C94.2582 43.4837 93.574 43.2667 92.6916 43.2667H89.8862C89.7781 43.2667 89.7241 43.3201 89.7241 43.4304V50.1891C89.7241 50.2958 89.7781 50.3528 89.8862 50.3528H91.2079C91.3231 50.3528 91.3808 50.2994 91.3808 50.1891V48.1757H91.7805C92.3351 48.1757 92.7637 48.3287 93.0662 48.6311C93.3687 48.9334 93.592 49.4563 93.736 50.1998C93.7576 50.2994 93.8189 50.3528 93.9197 50.3528H95.4035C95.5259 50.3528 95.5763 50.2923 95.5583 50.1713C95.3819 49.0721 94.9605 48.2896 94.2978 47.8236L94.3015 47.8164ZM92.652 46.6426H91.3808V44.7714H92.652C93.4083 44.7714 93.7901 45.0809 93.7901 45.7034C93.7901 46.326 93.4119 46.6426 92.652 46.6426ZM107.061 49.0117V50.1856C107.061 50.2923 107.007 50.3492 106.899 50.3492H102.095C101.987 50.3492 101.933 50.2958 101.933 50.1856V43.4268C101.933 43.3201 101.987 43.2632 102.095 43.2632H106.859C106.967 43.2632 107.021 43.3165 107.021 43.4268V44.6007C107.021 44.7145 106.967 44.7714 106.859 44.7714H103.593V46.0663H106.143C106.251 46.0663 106.305 46.1232 106.305 46.237V47.3718C106.305 47.4856 106.251 47.5425 106.143 47.5425H103.593V48.8374H106.903C107.011 48.8374 107.065 48.8943 107.065 49.0081L107.061 49.0117ZM98.1513 27.0101C99.0696 25.2991 99.5342 23.4422 99.5342 21.4893C99.5342 18.2629 98.3458 15.4562 95.9977 13.1511C93.6496 10.846 90.6677 9.67925 87.1348 9.67925H78.6068C78.189 9.67925 77.8469 10.0136 77.8469 10.4298V38.4965C77.8469 38.9091 78.1854 39.2471 78.6068 39.2471H84.2645C84.6822 39.2471 85.0244 38.9127 85.0244 38.4965V33.3385H87.3364C87.5921 33.3385 87.9198 33.3242 88.316 33.2922L89.4864 35.1064C90.5308 36.7107 91.6833 37.817 92.9113 38.3933C94.1286 38.966 95.9041 39.2435 98.3314 39.2435C98.7491 39.2435 99.0912 38.9091 99.0912 38.4929V33.1037C99.0912 32.6911 98.7527 32.3531 98.3314 32.3531C97.4562 32.3531 96.7612 32.2606 96.2714 32.0792C95.85 31.9227 95.4611 31.5919 95.1262 31.0939L94.9173 30.7773C96.2678 29.7634 97.3518 28.4971 98.1513 27.003V27.0101ZM90.9018 24.89C89.9078 25.8042 88.7265 26.2453 87.2968 26.2453H85.0244V16.7653H87.2968C88.7265 16.7653 89.9042 17.2135 90.9018 18.1384C91.8813 19.049 92.3603 20.1589 92.3603 21.5249C92.3603 22.8909 91.8849 23.99 90.9054 24.8865L90.9018 24.89ZM118.434 43.4268V44.622C118.434 44.7288 118.38 44.7857 118.272 44.7857H115.034V46.2619H117.829C117.937 46.2619 117.991 46.3153 117.991 46.4256V47.6101C117.991 47.724 117.937 47.7809 117.829 47.7809H115.034V50.1891C115.034 50.2958 114.977 50.3528 114.862 50.3528H113.54C113.432 50.3528 113.378 50.2994 113.378 50.1891V43.4304C113.378 43.3236 113.432 43.2667 113.54 43.2667H118.272C118.38 43.2667 118.434 43.3201 118.434 43.4304V43.4268ZM118.611 10.4298V15.8191C118.611 16.2317 118.272 16.5696 117.851 16.5696H108.869V21.2972H117.325C117.743 21.2972 118.085 21.6316 118.085 22.0478V27.2378C118.085 27.6504 117.746 27.9884 117.325 27.9884H108.869V32.3567H117.851C118.268 32.3567 118.611 32.6911 118.611 33.1073V38.4965C118.611 38.9091 118.272 39.2471 117.851 39.2471H102.451C102.034 39.2471 101.691 38.9127 101.691 38.4965V10.4298C101.691 10.0172 102.03 9.67925 102.451 9.67925H117.851C118.268 9.67925 118.611 10.0136 118.611 10.4298ZM80.7604 43.2667H77.9837C77.8757 43.2667 77.8217 43.3201 77.8217 43.4304V50.1891C77.8217 50.2958 77.8757 50.3528 77.9837 50.3528H79.3054C79.4207 50.3528 79.4783 50.2994 79.4783 50.1891V48.2575H80.7604C81.6499 48.2575 82.3378 48.037 82.8239 47.5995C83.3137 47.1619 83.555 46.5465 83.555 45.7568C83.555 44.9671 83.3101 44.3552 82.8239 43.9213C82.3341 43.4873 81.6463 43.2703 80.7604 43.2703V43.2667ZM80.7207 46.7386H79.4819V44.775H80.7207C81.4734 44.775 81.848 45.1023 81.848 45.7568C81.848 46.4113 81.4734 46.7386 80.7207 46.7386ZM39.5609 18.0139C41.981 18.0139 44.2858 18.5048 46.3854 19.3905L45.676 21.0553C43.7961 20.2656 41.7325 19.8281 39.5609 19.8281C37.3893 19.8281 35.3221 20.2656 33.4422 21.0589L32.7327 19.3941C34.8323 18.5083 37.1408 18.0174 39.5609 18.0174V18.0139ZM28.9585 11.6251C29.0881 11.5682 29.2178 11.5041 29.3474 11.4508C30.3234 11.0381 31.3318 10.6895 32.3654 10.3978L32.0953 9.48716C31.8432 9.55831 31.5911 9.63301 31.3426 9.71127L31.465 10.0777C31.2453 10.1453 31.0293 10.2235 30.8096 10.2982L30.6871 9.92826C30.4206 10.0172 30.1577 10.1132 29.8984 10.2093L30.0425 10.5721C29.8264 10.6539 29.6139 10.7358 29.4015 10.8247L29.2574 10.4654C29.1638 10.5045 29.0701 10.5401 28.9765 10.5792C28.8396 10.6362 28.7064 10.7002 28.5731 10.7607C28.5587 10.7678 28.5479 10.7713 28.5335 10.7784L28.9225 11.6464C28.9225 11.6464 28.9477 11.6357 28.9621 11.6286L28.9585 11.6251ZM35.5742 13.7203L35.0664 10.814C34.2489 10.9599 33.4422 11.1484 32.6535 11.3725L33.489 14.2041C34.1696 14.012 34.8647 13.8483 35.5742 13.7203ZM39.5609 13.3574C39.9174 13.3574 40.2703 13.3681 40.6233 13.3859L40.7925 10.4369C40.3856 10.4156 39.975 10.4049 39.5609 10.4049C39.1467 10.4049 38.7254 10.4156 38.3112 10.4369L38.4805 13.3859C38.837 13.3681 39.1971 13.3574 39.5609 13.3574ZM44.3759 8.87532C44.1418 8.83263 43.9077 8.79706 43.6736 8.76149L43.6196 9.14567C43.3927 9.1101 43.1622 9.08875 42.9353 9.0603L42.993 8.669C42.7517 8.63698 42.5068 8.60853 42.2619 8.58362L42.2259 8.97492C41.999 8.95358 41.7649 8.93935 41.538 8.92156L41.574 8.52315C41.3543 8.50537 41.1311 8.49114 40.9114 8.48046L40.8574 9.42669C41.999 9.48361 43.119 9.61522 44.2174 9.81443L44.3795 8.87888L44.3759 8.87532ZM38.2536 9.42313L38.1996 8.47691C37.9727 8.48758 37.7458 8.50537 37.5189 8.52315L37.5513 8.92156C37.3208 8.93935 37.0903 8.95002 36.8635 8.97492L36.831 8.58718C36.5862 8.61208 36.3413 8.64054 36.1 8.67255L36.154 9.06385C35.9271 9.09231 35.6966 9.11721 35.4697 9.14923L35.4157 8.7686C35.1852 8.80417 34.9547 8.83975 34.7279 8.88243L34.8899 9.81799C35.9883 9.61878 37.1119 9.48361 38.2536 9.42669V9.42313ZM50.1488 11.618C50.1488 11.618 50.1705 11.6286 50.1813 11.6322L50.5702 10.7642C50.5702 10.7642 50.5486 10.7535 50.5342 10.75C50.4009 10.6895 50.2713 10.6255 50.1344 10.5721C50.0336 10.5294 49.9328 10.4939 49.8355 10.4512L49.6879 10.8176C49.4754 10.7322 49.2593 10.6468 49.0468 10.565L49.1945 10.1986C48.9388 10.1026 48.6795 10.0101 48.4202 9.92115L48.2942 10.2947C48.0781 10.22 47.8584 10.1453 47.6387 10.0741L47.7648 9.70416C47.5127 9.6259 47.2606 9.55119 47.0085 9.47649L46.7384 10.3871C47.772 10.6824 48.7839 11.0274 49.7635 11.4401C49.8932 11.4934 50.0192 11.5575 50.1488 11.6144V11.618ZM47.257 17.3309C44.8909 16.3313 42.2871 15.7799 39.5573 15.7799C36.8274 15.7799 34.2201 16.3349 31.8504 17.3344L32.6103 19.1202C34.7459 18.2166 37.0939 17.7186 39.5537 17.7186C42.0134 17.7186 44.3579 18.2166 46.4935 19.1166L47.2534 17.3309H47.257ZM48.1573 16.0894C48.1573 16.0894 48.1753 16.0965 48.1825 16.1001L48.4418 15.5238C48.4418 15.5238 48.4238 15.5167 48.413 15.5096C48.305 15.4633 48.2005 15.41 48.0889 15.3637C45.4635 14.2574 42.5824 13.6456 39.5573 13.6456C36.5321 13.6456 33.6402 14.261 31.0149 15.3673C30.9032 15.4135 30.7952 15.4669 30.6871 15.5131C30.6763 15.5167 30.6655 15.5238 30.6547 15.5274L30.914 16.1036C30.914 16.1036 30.9356 16.093 30.9428 16.0894C31.0509 16.0432 31.1553 15.9934 31.2598 15.9471C33.8095 14.8693 36.6114 14.2752 39.5537 14.2752C42.496 14.2752 45.2906 14.8693 47.8404 15.9436C47.9448 15.9898 48.0493 16.0396 48.1537 16.0858L48.1573 16.0894ZM47.3722 17.057L47.7287 16.221C45.215 15.161 42.4564 14.574 39.5573 14.574C36.6582 14.574 33.8923 15.161 31.3786 16.2246L31.7351 17.0605C31.7351 17.0605 31.7387 17.0605 31.7423 17.0605C31.7243 16.7439 31.908 16.438 32.2213 16.3206C32.5382 16.1997 32.884 16.3064 33.082 16.559C33.417 16.4451 33.7519 16.342 34.094 16.2459C34.112 15.9258 34.3317 15.6412 34.6594 15.5594C34.9872 15.4776 35.3185 15.627 35.4841 15.9009C35.8047 15.8333 36.1252 15.7764 36.4529 15.7266C36.5033 15.4029 36.759 15.1396 37.1047 15.0969C37.4505 15.0542 37.771 15.2535 37.8934 15.5594C38.1996 15.5345 38.5093 15.5167 38.819 15.5025C38.9018 15.1788 39.1971 14.9369 39.5465 14.9369C39.8958 14.9369 40.1911 15.1788 40.2739 15.5025C40.5837 15.5131 40.8934 15.5309 41.2031 15.5558C41.3291 15.2499 41.6461 15.0507 41.9918 15.0934C42.3339 15.1361 42.5896 15.3993 42.64 15.7195C42.9641 15.7693 43.2883 15.8262 43.6088 15.8938C43.7781 15.6198 44.1058 15.474 44.4335 15.5558C44.7612 15.6376 44.9809 15.9187 44.9989 16.2388C45.341 16.3349 45.6796 16.4416 46.0145 16.5518C46.2162 16.3028 46.5583 16.1961 46.8752 16.3171C47.1885 16.438 47.3686 16.7404 47.3542 17.0534C47.3542 17.0534 47.3578 17.0534 47.3614 17.0534L47.3722 17.057ZM32.0665 10.782C31.2453 11.031 30.4386 11.3156 29.6535 11.6393C29.5887 11.6642 29.5239 11.6891 29.4591 11.714L29.6247 12.1053C29.6896 12.0768 29.7544 12.0555 29.8192 12.0306C30.5899 11.714 31.3786 11.433 32.1853 11.1875L32.0665 10.7784V10.782ZM31.0941 15.0222C31.7495 14.7519 32.423 14.5135 33.1072 14.3037L32.2717 11.4721C31.4758 11.7104 30.6979 11.9879 29.9381 12.3009C29.8732 12.3258 29.8084 12.3507 29.7472 12.3756L30.9068 15.0934C30.968 15.0685 31.0329 15.0436 31.0977 15.0187L31.0941 15.0222ZM38.0879 13.4037L37.9187 10.4583C37.0867 10.5116 36.2656 10.6041 35.4553 10.7358L35.9631 13.642C36.6618 13.5282 37.3713 13.4499 38.0879 13.4001V13.4037ZM35.3329 10.0279L35.4049 10.4476C36.226 10.3124 37.0579 10.22 37.9006 10.163L37.8754 9.73973C37.0147 9.79664 36.1648 9.89269 35.3293 10.0279H35.3329ZM49.6519 11.7104C49.587 11.682 49.5186 11.6606 49.4538 11.6322C48.6687 11.3085 47.862 11.0239 47.0409 10.7749L46.922 11.184C47.7287 11.4259 48.5174 11.7069 49.2881 12.0235C49.353 12.0519 49.4214 12.0733 49.4862 12.1017L49.6519 11.7104ZM49.1693 12.2938C48.4094 11.9808 47.6315 11.7033 46.8356 11.465L46.0001 14.2966C46.688 14.5029 47.3578 14.7448 48.0168 15.0116C48.0817 15.04 48.1501 15.0614 48.2149 15.0898L49.371 12.3721C49.3061 12.3436 49.2377 12.3223 49.1729 12.2938H49.1693ZM41.0158 13.4001C41.7361 13.4464 42.4456 13.5246 43.1442 13.6385L43.652 10.7322C42.8417 10.6006 42.0206 10.5081 41.1887 10.4547L41.0194 13.4001H41.0158ZM43.7709 10.0208C42.9353 9.88558 42.0854 9.78953 41.2247 9.73261L41.1995 10.1559C42.0422 10.2093 42.8777 10.3018 43.6952 10.4369L43.7673 10.0172L43.7709 10.0208ZM43.5296 13.7061C44.2354 13.8341 44.9305 13.9942 45.6147 14.1863L46.4503 11.3547C45.6616 11.1306 44.8549 10.9456 44.0338 10.7962L43.526 13.7025L43.5296 13.7061ZM39.5465 27.4086C35.9415 27.4086 32.7687 29.2654 30.9392 32.065H31.3678C33.1541 29.4717 36.1504 27.7678 39.5465 27.7678C42.9425 27.7678 45.9389 29.4717 47.7251 32.065H48.1537C46.3242 29.2654 43.1514 27.4086 39.5465 27.4086ZM56.2099 18.085C56.3432 18.1419 57.33 17.6688 58.0682 17.9641C58.5292 18.149 58.7165 18.4407 58.8929 18.8214C58.9073 18.1917 58.5796 17.9356 58.2411 17.7542C57.7729 17.5052 56.4548 17.7827 56.4116 17.7684C56.3684 17.7542 55.8822 16.31 54.7694 17.3131C56.0803 16.6906 56.0803 18.0281 56.2099 18.085ZM39.8958 32.7088H39.352V33.6053H38.4336V34.1424H39.352V36.5862H39.8958V34.1424H40.8141V33.6053H39.8958V32.7088ZM39.5465 26.5406C35.4373 26.5406 31.8396 28.7674 29.9128 32.065H30.327C32.2177 28.9702 35.6426 26.8963 39.5501 26.8963C43.4575 26.8963 46.8788 28.9702 48.7695 32.065H49.1837C47.2534 28.7639 43.6592 26.5406 39.5501 26.5406H39.5465ZM29.3222 23.9153H49.7707V32.0543C47.79 28.465 43.9473 26.0283 39.5465 26.0283C35.1456 26.0283 31.303 28.4686 29.3222 32.0543V23.9153ZM38.7902 24.7904L38.8694 24.8473L39.0315 24.9647L39.1935 25.0821L39.2584 25.1284L39.1935 25.3204L39.0783 25.6762L39.1935 25.5944L39.3556 25.477L39.5177 25.3596L39.5465 25.3382L39.6833 25.4378L39.8454 25.5552L40.0074 25.6726L40.0146 25.6797L40.0074 25.6548L39.8454 25.1604L39.8382 25.1319L39.8454 25.1248L40.0074 25.0074L40.1731 24.8865L40.3027 24.7904H39.7193L39.6833 24.673L39.5465 24.2497L39.5177 24.3351L39.3664 24.7904H38.7902ZM47.0913 32.0685H32.0052C33.7159 29.7741 36.4601 28.2836 39.5465 28.2836C42.6328 28.2836 45.3771 29.7741 47.0877 32.0685H47.0913ZM40.3784 30.2401L40.4288 30.2223L40.5548 30.1796L40.6845 30.137L40.5548 30.0694L40.4288 30.0018L40.3496 29.9591L40.4288 29.8808L40.5548 29.7528L40.6593 29.6461H40.2451L40.2991 29.5215L40.3964 29.2832L40.2991 29.3117L40.1695 29.3472L40.0435 29.3828L40.011 29.3899L39.9822 29.0022L39.9138 29.0627L39.7914 29.1658L39.6761 29.2619L39.6581 29.2263L39.5249 28.9595V28.9524L39.3988 29.1765L39.3628 29.2405L39.2728 29.1658L39.1431 29.0556L39.0279 28.9559L39.0531 29.4184L39.0171 29.4042L38.8874 29.3544L38.7578 29.3046L38.6677 29.269L38.7578 29.4504L38.8478 29.6283H38.3796L38.4985 29.7777L38.6317 29.9484L38.6641 29.9911L38.6317 30.0089L38.4985 30.0765L38.376 30.137L38.358 30.1476L38.376 30.1547L38.4985 30.2117L38.6317 30.2721L38.6893 30.3006L38.6317 30.3575L38.4985 30.4927L38.376 30.6172L38.358 30.635H38.8262L38.7578 30.7737L38.6425 31.0156L38.7578 30.9765L38.8874 30.9338L39.0171 30.8911H39.0279L39.0531 31.3535L39.1431 31.2717L39.2728 31.1508L39.388 31.044L39.3988 31.0618L39.5249 31.2824L39.5501 31.3251L39.6581 31.0191L39.6761 30.9693L39.7914 31.0903L39.9138 31.2219L40.0146 31.3286L40.0362 30.8413H40.0435L40.1695 30.8982L40.2991 30.9516L40.346 30.9729L40.2991 30.8448L40.2199 30.635H40.6305L40.5548 30.5211L40.4288 30.3255L40.3784 30.2472V30.2401ZM48.9172 46.9449C48.6975 46.8062 48.4202 46.6354 48.0493 46.6354C47.6783 46.6354 47.401 46.8062 47.1813 46.9449C46.9905 47.0659 46.8392 47.1584 46.6519 47.1584C46.4647 47.1584 46.3134 47.0623 46.1225 46.9449C45.9029 46.8062 45.6256 46.6354 45.2546 46.6354C44.8837 46.6354 44.6064 46.8062 44.3867 46.9449C44.1958 47.0659 44.0446 47.1584 43.8573 47.1584C43.67 47.1584 43.5188 47.0623 43.3279 46.9449C43.1082 46.8062 42.8309 46.6354 42.46 46.6354C42.089 46.6354 41.8117 46.8062 41.592 46.9449C41.4012 47.0659 41.2499 47.1584 41.0626 47.1584C40.8754 47.1584 40.7241 47.0623 40.5332 46.9449C40.3136 46.8062 40.0363 46.6354 39.6653 46.6354C39.2944 46.6354 39.0171 46.8062 38.7974 46.9449C38.6065 47.0659 38.4553 47.1584 38.268 47.1584C38.0807 47.1584 37.9295 47.0623 37.7386 46.9449C37.5189 46.8062 37.2416 46.6354 36.8707 46.6354C36.4997 46.6354 36.2224 46.8062 36.0027 46.9449C35.8119 47.0659 35.6606 47.1584 35.4733 47.1584C35.2861 47.1584 35.1348 47.0623 34.9439 46.9449C34.7243 46.8062 34.4469 46.6354 34.076 46.6354C33.7051 46.6354 33.4278 46.8062 33.2081 46.9449C33.0172 47.0659 32.866 47.1584 32.6787 47.1584C32.4914 47.1584 32.3402 47.0623 32.1493 46.9449C31.9296 46.8062 31.6523 46.6354 31.2814 46.6354C30.9104 46.6354 30.6331 46.8062 30.4134 46.9449C30.2226 47.0659 30.0713 47.1584 29.884 47.1584C29.6968 47.1584 29.5455 47.0623 29.3546 46.9449C29.3474 46.9414 29.3402 46.9342 29.333 46.9307V47.5568C29.4915 47.635 29.668 47.6955 29.884 47.6955C30.2334 47.6955 30.4891 47.5354 30.7123 47.3967C30.9068 47.2757 31.0725 47.1726 31.2814 47.1726C31.4902 47.1726 31.6559 47.2757 31.8504 47.3967C32.0737 47.5354 32.3294 47.6955 32.6787 47.6955C33.028 47.6955 33.2837 47.5354 33.507 47.3967C33.7015 47.2757 33.8671 47.1726 34.076 47.1726C34.2849 47.1726 34.4506 47.2757 34.645 47.3967C34.8683 47.5354 35.124 47.6955 35.4733 47.6955C35.8227 47.6955 36.0784 47.5354 36.3016 47.3967C36.4961 47.2757 36.6618 47.1726 36.8707 47.1726C37.0795 47.1726 37.2452 47.2757 37.4397 47.3967C37.663 47.5354 37.9187 47.6955 38.268 47.6955C38.6173 47.6955 38.873 47.5354 39.0963 47.3967C39.2908 47.2757 39.4564 47.1726 39.6653 47.1726C39.8742 47.1726 40.0399 47.2757 40.2343 47.3967C40.4576 47.5354 40.7133 47.6955 41.0626 47.6955C41.412 47.6955 41.6677 47.5354 41.8909 47.3967C42.0854 47.2757 42.2511 47.1726 42.46 47.1726C42.6688 47.1726 42.8345 47.2757 43.029 47.3967C43.2523 47.5354 43.508 47.6955 43.8573 47.6955C44.2066 47.6955 44.4623 47.5354 44.6856 47.3967C44.8801 47.2757 45.0457 47.1726 45.2546 47.1726C45.4635 47.1726 45.6292 47.2757 45.8236 47.3967C46.0469 47.5354 46.3026 47.6955 46.6519 47.6955C47.0013 47.6955 47.257 47.5354 47.4802 47.3967C47.6747 47.2757 47.8404 47.1726 48.0493 47.1726C48.2581 47.1726 48.4238 47.2757 48.6183 47.3967C48.8416 47.5354 49.0973 47.6955 49.4466 47.6955C49.569 47.6955 49.6807 47.6742 49.7815 47.6457V47.0623C49.6699 47.1228 49.5654 47.1584 49.4466 47.1584C49.2593 47.1584 49.1081 47.0623 48.9172 46.9449ZM48.9172 47.9943C48.6975 47.8556 48.4202 47.6848 48.0493 47.6848C47.6783 47.6848 47.401 47.8556 47.1813 47.9943C46.9905 48.1153 46.8392 48.2077 46.6519 48.2077C46.4647 48.2077 46.3134 48.1117 46.1225 47.9943C45.9029 47.8556 45.6256 47.6848 45.2546 47.6848C44.8837 47.6848 44.6064 47.8556 44.3867 47.9943C44.1958 48.1153 44.0446 48.2077 43.8573 48.2077C43.67 48.2077 43.5188 48.1117 43.3279 47.9943C43.1082 47.8556 42.8309 47.6848 42.46 47.6848C42.089 47.6848 41.8117 47.8556 41.592 47.9943C41.4012 48.1153 41.2499 48.2077 41.0626 48.2077C40.8754 48.2077 40.7241 48.1117 40.5332 47.9943C40.3136 47.8556 40.0363 47.6848 39.6653 47.6848C39.2944 47.6848 39.0171 47.8556 38.7974 47.9943C38.6065 48.1153 38.4553 48.2077 38.268 48.2077C38.0807 48.2077 37.9295 48.1117 37.7386 47.9943C37.5189 47.8556 37.2416 47.6848 36.8707 47.6848C36.4997 47.6848 36.2224 47.8556 36.0027 47.9943C35.8119 48.1153 35.6606 48.2077 35.4733 48.2077C35.2861 48.2077 35.1348 48.1117 34.9439 47.9943C34.7243 47.8556 34.4469 47.6848 34.076 47.6848C33.7051 47.6848 33.4278 47.8556 33.2081 47.9943C33.0172 48.1153 32.866 48.2077 32.6787 48.2077C32.4914 48.2077 32.3402 48.1117 32.1493 47.9943C31.9296 47.8556 31.6523 47.6848 31.2814 47.6848C30.9104 47.6848 30.6331 47.8556 30.4134 47.9943C30.2226 48.1153 30.0713 48.2077 29.884 48.2077C29.6968 48.2077 29.5455 48.1117 29.3546 47.9943C29.3546 47.9943 29.351 47.9943 29.3474 47.9907C29.3618 48.1508 29.387 48.2967 29.4231 48.4283C29.4483 48.5172 29.4771 48.599 29.5131 48.6773C29.6247 48.7164 29.7472 48.7413 29.884 48.7413C30.2334 48.7413 30.4891 48.5812 30.7159 48.4425C30.9104 48.3216 31.0761 48.2184 31.285 48.2184C31.4938 48.2184 31.6595 48.3216 31.854 48.4425C32.0773 48.5848 32.333 48.7413 32.6823 48.7413C33.0316 48.7413 33.2873 48.5812 33.5142 48.4425C33.7087 48.3216 33.8743 48.2184 34.0832 48.2184C34.2921 48.2184 34.4578 48.3216 34.6522 48.4425C34.8755 48.5848 35.1312 48.7413 35.4805 48.7413C35.8299 48.7413 36.0856 48.5812 36.3125 48.4425C36.5069 48.3216 36.6726 48.2184 36.8815 48.2184C37.0903 48.2184 37.256 48.3216 37.4505 48.4425C37.6738 48.5848 37.9295 48.7413 38.2788 48.7413C38.6281 48.7413 38.8838 48.5812 39.1107 48.4425C39.3052 48.3216 39.4708 48.2184 39.6797 48.2184C39.8886 48.2184 40.0543 48.3216 40.2487 48.4425C40.472 48.5848 40.7277 48.7413 41.077 48.7413C41.4264 48.7413 41.6821 48.5812 41.909 48.4425C42.1034 48.3216 42.2691 48.2184 42.478 48.2184C42.6868 48.2184 42.8525 48.3216 43.047 48.4425C43.2703 48.5848 43.526 48.7413 43.8753 48.7413C44.2246 48.7413 44.4803 48.5812 44.7072 48.4425C44.9017 48.3216 45.0673 48.2184 45.2762 48.2184C45.4851 48.2184 45.6508 48.3216 45.8452 48.4425C46.0685 48.5848 46.3242 48.7413 46.6735 48.7413C47.0229 48.7413 47.2786 48.5812 47.5055 48.4425C47.6999 48.3216 47.8656 48.2184 48.0745 48.2184C48.2834 48.2184 48.449 48.3216 48.6435 48.4425C48.8668 48.5848 49.1225 48.7413 49.4718 48.7413C49.515 48.7413 49.5582 48.7413 49.6014 48.7342C49.6447 48.6382 49.6843 48.5386 49.7167 48.4283C49.7419 48.3322 49.7635 48.2326 49.7779 48.1259C49.6771 48.1757 49.5834 48.2077 49.4718 48.2077C49.2845 48.2077 49.1333 48.1117 48.9424 47.9943H48.9172ZM20.2144 22.7699C21.0031 23.1327 21.4605 23.2537 22.0871 23.8904C22.6597 24.4738 23.4772 24.6303 24.0895 24.0612C24.7017 23.492 24.8818 23.3248 24.8818 23.3248C24.8818 23.3248 25.4292 23.5027 25.9442 23.275C26.189 23.7339 26.2611 25.1959 23.7257 24.7299C24.6909 25.5908 26.9885 25.3382 26.4591 22.7735C26.6788 22.5351 26.6464 22.0158 26.596 21.4466C26.5096 20.5004 26.7509 20.319 26.7473 19.8103C26.7364 19.2945 26.6248 18.9601 26.0846 18.4158C25.5444 17.8716 25.1591 17.6937 24.9322 17.6759C24.8673 17.6759 24.7413 17.7506 24.7413 17.7506C24.7413 17.7506 25.6488 18.1811 25.9405 18.7289C26.2395 19.2731 26.0738 20.0557 25.9766 20.5395C25.8757 21.0269 25.9982 21.4395 26.1494 21.749C26.3079 22.062 26.4663 22.4498 26.1386 22.7948C25.8145 23.1434 24.9934 22.9264 24.9934 22.9264C24.9934 22.9264 24.7665 22.6027 24.9142 22.2007C25.0654 21.8095 25.3175 21.6245 25.3067 21.4004C25.2923 21.1798 25.033 21.0304 24.7665 20.7601C24.4964 20.4933 24.2515 19.9312 24.3812 19.668C24.5072 19.3976 24.6945 19.1878 25.015 19.0846C25.3319 18.9814 25.4184 18.8178 25.2815 18.5901C25.1447 18.3518 24.7773 18.3767 24.5288 18.6079C24.2875 18.8392 23.9094 19.355 24.0354 19.9704C24.1687 20.5858 24.5576 21.0269 24.7773 21.2972C25.0042 21.5604 24.7089 21.9162 24.2011 22.0264C23.6933 22.1474 23.38 22.1047 23.3188 22.0371C23.2611 21.9695 23.2719 21.5391 23.1891 21.0518C23.1027 20.5644 22.3536 20.0628 21.7414 20.0771C21.1291 20.0842 20.7582 20.2229 20.8915 20.6569C21.2408 21.2154 21.9358 20.5537 21.9358 20.5537C21.9358 20.5537 22.5301 20.8561 22.7389 21.3292C22.9406 21.8095 22.8722 22.2968 23.1675 22.3786C23.4556 22.4569 24.1327 22.2434 24.3055 22.4675C24.4928 22.6916 24.5504 23.0296 24.5504 23.0296C24.5504 23.0296 23.6033 24.4098 22.6489 23.8762C22.2564 23.6557 21.7342 23.147 21.1399 22.7699C20.5493 22.4 19.8759 22.2826 19.8759 21.283C19.8759 20.2834 19.9335 20.013 20.0739 19.387C20.218 18.7609 20.218 18.0743 21.0463 17.9712C21.8818 17.868 22.7209 18.0103 22.8614 17.9498C23.0018 17.8894 23.0018 16.4771 24.3884 17.1352C23.2107 16.0752 22.6993 17.6012 22.6525 17.619C22.6057 17.6332 21.0679 17.3558 20.5745 17.619C20.0811 17.8823 19.9443 18.1633 19.5986 19.7925C19.2708 21.3328 19.4221 22.4106 20.2072 22.7699H20.2144ZM26.2503 26.907C26.6536 27.8639 26.8625 28.5967 26.8625 28.5967C25.9225 27.4157 25.0042 27.1738 24.5828 26.6829C24.5 27.5046 24.6369 28.0773 24.6369 28.0773C24.6369 28.0773 23.6429 27.5366 23.1027 26.2596C23.0631 27.124 23.4664 28.5398 25.6344 29.0556C25.0906 28.3334 25.069 27.7429 25.069 27.7429C25.069 27.7429 26.2143 28.4366 27.4747 30.016C27.5468 28.5184 27.2911 27.6682 26.2503 26.9105V26.907ZM48.9136 45.9026C48.6939 45.7639 48.4166 45.5932 48.0457 45.5932C47.6747 45.5932 47.3974 45.7639 47.1777 45.9026C46.9869 46.0236 46.8356 46.1161 46.6483 46.1161C46.4611 46.1161 46.3098 46.02 46.1189 45.9026C45.8993 45.7639 45.6219 45.5932 45.251 45.5932C44.8801 45.5932 44.6028 45.7639 44.3831 45.9062C44.1922 46.0272 44.041 46.1196 43.8537 46.1196C43.6664 46.1196 43.5152 46.0236 43.3243 45.9062C43.1046 45.7675 42.8273 45.5967 42.4564 45.5967C42.0854 45.5967 41.8081 45.7675 41.5884 45.9062C41.3976 46.0272 41.2463 46.1196 41.059 46.1196C40.8718 46.1196 40.7205 46.0236 40.5296 45.9062C40.31 45.7675 40.0326 45.5967 39.6617 45.5967C39.2908 45.5967 39.0135 45.7675 38.7938 45.9062C38.6029 46.0272 38.4517 46.1196 38.2644 46.1196C38.0771 46.1196 37.9259 46.0236 37.735 45.9062C37.5153 45.7675 37.238 45.5967 36.8671 45.5967C36.4961 45.5967 36.2188 45.7675 35.9991 45.9062C35.8083 46.0272 35.657 46.1196 35.4697 46.1196C35.2825 46.1196 35.1312 46.0236 34.9403 45.9062C34.7206 45.7675 34.4433 45.5967 34.0724 45.5967C33.7015 45.5967 33.4242 45.7675 33.2045 45.9062C33.0136 46.0272 32.8624 46.1196 32.6751 46.1196C32.4878 46.1196 32.3366 46.0236 32.1457 45.9062C31.926 45.7675 31.6487 45.5967 31.2778 45.5967C30.9068 45.5967 30.6295 45.7675 30.4098 45.9062C30.219 46.0272 30.0677 46.1196 29.8804 46.1196C29.6932 46.1196 29.5419 46.0236 29.351 45.9062C29.3438 45.9026 29.3366 45.8955 29.3294 45.892V46.5181C29.4879 46.5963 29.6644 46.6568 29.8804 46.6568C30.2298 46.6568 30.4855 46.4967 30.7123 46.358C30.9068 46.237 31.0725 46.1339 31.2814 46.1339C31.4902 46.1339 31.6559 46.237 31.8504 46.358C32.0737 46.5003 32.3294 46.6568 32.6787 46.6568C33.028 46.6568 33.2837 46.4967 33.5106 46.358C33.7051 46.237 33.8707 46.1339 34.0796 46.1339C34.2885 46.1339 34.4542 46.237 34.6486 46.358C34.8719 46.5003 35.1276 46.6568 35.4769 46.6568C35.8263 46.6568 36.082 46.4967 36.3088 46.358C36.5033 46.237 36.669 46.1339 36.8779 46.1339C37.0867 46.1339 37.2524 46.237 37.4469 46.358C37.6702 46.5003 37.9259 46.6568 38.2752 46.6568C38.6245 46.6568 38.8802 46.4967 39.1071 46.358C39.3016 46.237 39.4672 46.1339 39.6761 46.1339C39.885 46.1339 40.0507 46.237 40.2451 46.358C40.4684 46.5003 40.7241 46.6568 41.0734 46.6568C41.4228 46.6568 41.6785 46.4967 41.9054 46.358C42.0998 46.237 42.2655 46.1339 42.4744 46.1339C42.6832 46.1339 42.8489 46.237 43.0434 46.358C43.2667 46.5003 43.5224 46.6568 43.8717 46.6568C44.221 46.6568 44.4767 46.4967 44.7036 46.358C44.8981 46.237 45.0637 46.1339 45.2726 46.1339C45.4815 46.1339 45.6472 46.237 45.8416 46.358C46.0649 46.5003 46.3206 46.6568 46.6699 46.6568C47.0193 46.6568 47.275 46.4967 47.5019 46.358C47.6963 46.237 47.862 46.1339 48.0709 46.1339C48.2797 46.1339 48.4454 46.237 48.6399 46.358C48.8632 46.5003 49.1189 46.6568 49.4682 46.6568C49.5906 46.6568 49.7023 46.6354 49.8031 46.607V46.0236C49.6915 46.0841 49.587 46.1232 49.4682 46.1232C49.2809 46.1232 49.1297 46.0272 48.9388 45.9098L48.9136 45.9026ZM48.0457 48.7413C47.6747 48.7413 47.3974 48.9121 47.1777 49.0508C46.9869 49.1718 46.8356 49.2642 46.6483 49.2642C46.4611 49.2642 46.3098 49.1682 46.1189 49.0508C45.8993 48.9121 45.6219 48.7413 45.251 48.7413C44.8801 48.7413 44.6028 48.9121 44.3831 49.0508C44.1922 49.1718 44.041 49.2642 43.8537 49.2642C43.6664 49.2642 43.5152 49.1682 43.3243 49.0508C43.1046 48.9121 42.8273 48.7413 42.4564 48.7413C42.0854 48.7413 41.8081 48.9121 41.5884 49.0508C41.3976 49.1718 41.2463 49.2642 41.059 49.2642C40.8718 49.2642 40.7205 49.1682 40.5296 49.0508C40.31 48.9121 40.0326 48.7413 39.6617 48.7413C39.2908 48.7413 39.0135 48.9121 38.7938 49.0508C38.6029 49.1718 38.4517 49.2642 38.2644 49.2642C38.0771 49.2642 37.9259 49.1682 37.735 49.0508C37.5153 48.9121 37.238 48.7413 36.8671 48.7413C36.4961 48.7413 36.2188 48.9121 35.9991 49.0508C35.8083 49.1718 35.657 49.2642 35.4697 49.2642C35.2825 49.2642 35.1312 49.1682 34.9403 49.0508C34.7206 48.9121 34.4433 48.7413 34.0724 48.7413C33.7015 48.7413 33.4242 48.9121 33.2045 49.0508C33.0136 49.1718 32.8624 49.2642 32.6751 49.2642C32.4878 49.2642 32.3366 49.1682 32.1457 49.0508C31.926 48.9121 31.6487 48.7413 31.2778 48.7413C30.9068 48.7413 30.6295 48.9121 30.4098 49.0508C30.2262 49.1646 30.0821 49.2536 29.9056 49.2642C30.0821 49.4314 30.2874 49.5453 30.4999 49.6271C30.5719 49.5879 30.6439 49.5453 30.7087 49.5026C30.9032 49.3816 31.0689 49.2785 31.2778 49.2785C31.4866 49.2785 31.6523 49.3816 31.8468 49.5026C32.0556 49.6342 32.2897 49.7765 32.6031 49.7978H32.7471C33.0604 49.7765 33.2945 49.6342 33.5034 49.5026C33.6979 49.3816 33.8635 49.2785 34.0724 49.2785C34.2813 49.2785 34.4469 49.3816 34.6414 49.5026C34.8503 49.6342 35.0844 49.7765 35.3977 49.7978H35.5418C35.8551 49.7765 36.0892 49.6342 36.298 49.5026C36.4925 49.3816 36.6582 49.2785 36.8671 49.2785C37.0759 49.2785 37.2416 49.3816 37.4361 49.5026C37.645 49.6342 37.879 49.7765 38.1924 49.7978H38.3364C38.6497 49.7765 38.8838 49.6342 39.0927 49.5026C39.2872 49.3816 39.4528 49.2785 39.6617 49.2785C39.8706 49.2785 40.0363 49.3816 40.2307 49.5026C40.4396 49.6342 40.6737 49.7765 40.987 49.7978H41.1311C41.4444 49.7765 41.6785 49.6342 41.8873 49.5026C42.0818 49.3816 42.2475 49.2785 42.4564 49.2785C42.6652 49.2785 42.8309 49.3816 43.0254 49.5026C43.2343 49.6342 43.4683 49.7765 43.7817 49.7978H43.9257C44.239 49.7765 44.4731 49.6342 44.682 49.5026C44.8765 49.3816 45.0421 49.2785 45.251 49.2785C45.4599 49.2785 45.6256 49.3816 45.82 49.5026C46.0289 49.6342 46.263 49.7765 46.5763 49.7978H46.7204C47.0337 49.7765 47.2678 49.6342 47.4766 49.5026C47.6711 49.3816 47.8368 49.2785 48.0457 49.2785C48.2545 49.2785 48.4202 49.3816 48.6147 49.5026C48.6507 49.5275 48.6903 49.5488 48.7299 49.5737C48.9136 49.4919 49.0865 49.3781 49.2377 49.2251C49.1333 49.186 49.0324 49.122 48.9136 49.0508C48.6939 48.9121 48.4166 48.7413 48.0457 48.7413ZM64.8532 24.9292C64.8532 26.3058 66.1929 27.5473 67.6082 28.8599C69.2432 30.3753 70.9323 31.9405 70.9323 33.9788C70.9323 34.9321 70.4965 35.7645 69.6718 36.3799C69.2108 36.725 68.7534 36.9135 68.5446 36.9882C68.5446 37.5574 68.4833 38.0732 68.4221 38.5427C68.3429 39.1652 68.2781 39.7024 68.4041 40.1292C68.541 40.5952 69.2 41.1929 69.733 41.6695C70.0391 41.947 70.3056 42.1889 70.4389 42.3739C70.7234 42.7723 70.5829 43.626 70.4317 44.5296C70.3741 44.8853 70.3164 45.2232 70.2984 45.4936C70.2804 45.7675 70.2804 46.0876 70.2768 46.4327C70.2768 47.2295 70.2768 48.0512 70.0391 48.5208C69.7186 49.154 68.6922 49.965 67.8675 50.2532C67.7847 50.2887 67.6982 50.3207 67.6046 50.3492C67.5722 50.3599 67.5398 50.3705 67.5074 50.3812C67.4858 50.3919 67.4606 50.4026 67.4389 50.4132C67.4389 50.4132 67.4389 50.4097 67.4389 50.4061V50.4132C67.4065 50.4275 67.3741 50.4381 67.3417 50.4488C67.2805 50.4701 67.2157 50.495 67.1544 50.5128C67.1544 50.5128 67.1544 50.5057 67.1544 50.4986V50.5128C67.0716 50.5377 66.9852 50.5555 66.9024 50.5733C66.8915 50.5733 66.8771 50.5769 66.8663 50.5804C66.6395 50.6338 66.3982 50.6551 66.0992 50.6302C66.0272 50.6267 65.9588 50.6196 65.8868 50.6124V50.6053V50.6124C65.8183 50.6053 65.7535 50.5947 65.6851 50.584V50.5733V50.584C65.6815 50.584 65.6779 50.584 65.6707 50.584C65.5734 50.5662 65.4762 50.5413 65.379 50.5164C65.379 50.5164 65.379 50.5164 65.379 50.5093V50.5164C65.3394 50.5057 65.3033 50.4915 65.2673 50.4808C65.2457 50.4737 65.2241 50.4701 65.2025 50.463C64.385 50.2389 64.0969 49.9721 63.9961 49.6876C63.8088 49.2287 63.9889 48.5884 64.2806 48.2824C64.7235 47.8164 67.1761 47.5852 67.5938 46.6105C68.0152 45.6323 67.5938 44.0956 67.5938 44.0956C67.5938 44.0956 67.1761 43.8643 65.2421 42.8897C63.9781 42.2494 63.1605 41.232 62.6816 40.0403C62.3502 40.1719 61.6804 40.4636 61.061 40.9118C60.193 41.5379 59.7933 42.4486 59.7717 43.1422C59.7465 43.843 59.9805 44.3054 59.7465 45.1201C59.516 45.9382 58.5724 46.1872 57.9386 46.8844C57.4056 47.4678 56.4908 48.5706 56.3936 48.6986C56.2964 48.8267 56.1595 48.9939 55.929 49.1824C55.767 49.314 53.228 49.7125 51.9675 49.5132C51.4417 49.4314 51.8343 48.6453 52.234 48.005C53.0948 46.6248 55.2844 46.0272 56.4152 44.6576C57.5352 43.2845 56.4584 41.8936 56.4584 40.2182C56.4584 38.5427 57.9422 37.4151 57.9422 37.4151C56.8006 36.476 55.4356 36.3337 53.9807 35.1207C52.0288 36.6574 52.3025 38.8202 52.018 39.9336C51.8559 40.581 51.3733 41.1004 50.7251 41.3743C50.7107 41.3814 50.6927 41.385 50.6782 41.3921V43.5442H50.6855V47.5425C50.6855 47.852 50.6602 48.1224 50.6206 48.3749C50.509 49.0935 50.2461 49.5915 49.9076 49.9294C49.8247 50.0113 49.7383 50.0895 49.6447 50.1536C49.0288 50.5947 48.2509 50.6622 47.6243 50.6622H31.4794C30.8672 50.6622 30.1109 50.5982 29.5059 50.182C29.3726 50.0895 29.2466 49.9757 29.1277 49.8476C28.8216 49.5061 28.5911 49.0259 28.4903 48.3465C28.4543 48.101 28.4291 47.8378 28.4291 47.539V43.5406V41.4063C28.4147 41.3992 28.4003 41.3956 28.3895 41.3921C27.7412 41.1182 27.255 40.5988 27.0966 39.9514C26.8121 38.838 26.9777 38.1585 26.5096 37.351C26.2251 36.7534 25.7317 36.3372 25.2851 36.0598C25.0042 36.3123 24.446 36.6965 23.4124 37.0487C21.6441 37.657 21.3848 37.6783 21.3848 37.6783C21.3848 37.6783 22.6561 38.5569 22.6561 40.236C22.6561 41.915 21.5793 43.2987 22.6993 44.6754C23.8302 46.0449 26.0234 46.6426 26.8805 48.0228C27.2803 48.6666 27.6728 49.4492 27.147 49.531C25.8865 49.7302 23.3512 49.3283 23.1855 49.2002C22.955 49.0117 22.8182 48.8445 22.7209 48.7164C22.6237 48.5884 21.709 47.4892 21.176 46.9022C20.5421 46.205 19.5986 45.9524 19.3681 45.1378C19.134 44.3232 19.3681 43.8608 19.3429 43.16C19.3213 42.4664 18.9215 41.5557 18.0536 40.9296C17.4342 40.4814 16.7643 40.1897 16.433 40.0581C15.954 41.2462 15.1365 42.2671 13.8724 42.9075C11.9385 43.8821 11.5207 44.1134 11.5207 44.1134C11.5207 44.1134 11.0994 45.6501 11.5207 46.6283C11.9385 47.603 14.3874 47.8342 14.834 48.3002C15.1257 48.6062 15.3058 49.2465 15.1185 49.7053C15.0176 49.9899 14.7295 50.2567 13.912 50.4808C13.8904 50.4879 13.8688 50.4915 13.8472 50.4986C13.8112 50.5093 13.7716 50.5235 13.7356 50.5342V50.5271V50.5342C13.6383 50.5626 13.5447 50.584 13.4439 50.6018C13.4403 50.6018 13.4367 50.6018 13.4294 50.6018V50.5911V50.6018C13.3646 50.6124 13.2962 50.6231 13.2278 50.6302V50.6231V50.6302C13.1557 50.6373 13.0873 50.6445 13.0153 50.648C12.7164 50.6729 12.4751 50.648 12.2482 50.5982C12.2374 50.5982 12.223 50.5982 12.2122 50.5911C12.1294 50.5733 12.0429 50.5555 11.9601 50.5306V50.5164V50.5306C11.8953 50.5128 11.834 50.4915 11.7728 50.4666C11.7404 50.4559 11.708 50.4452 11.6756 50.431V50.4239V50.431C11.6504 50.4203 11.6288 50.4097 11.6072 50.399C11.5748 50.3883 11.5423 50.3777 11.5099 50.367C11.4199 50.3385 11.3335 50.303 11.247 50.2709C10.4223 49.9828 9.39593 49.1718 9.07541 48.5386C8.83772 48.069 8.83772 47.2437 8.83772 46.4505C8.83772 46.109 8.83772 45.7853 8.81611 45.5149C8.79811 45.2481 8.74049 44.9102 8.68286 44.5509C8.53161 43.6474 8.39115 42.7936 8.67566 42.3952C8.80891 42.2102 9.07541 41.9683 9.38153 41.6909C9.91092 41.2106 10.5736 40.6166 10.7104 40.1506C10.8365 39.7237 10.768 39.183 10.6924 38.5605C10.6348 38.0909 10.57 37.5751 10.57 37.006C10.3611 36.9313 9.90012 36.7428 9.44275 36.3977C8.61804 35.7787 8.18228 34.9499 8.18228 33.9966C8.18228 31.9583 9.87131 30.3931 11.5063 28.8777C12.9253 27.5615 14.2614 26.32 14.2614 24.9469C14.2614 24.1857 14.0345 23.6806 13.6095 23.492C13.4907 23.4387 13.3538 23.4102 13.2134 23.4102C13.0477 23.4316 12.8244 23.5027 12.6083 23.709C12.3166 23.9865 12.0069 24.9078 11.8521 25.6157C11.7116 26.2524 11.0057 28.1449 8.07063 26.7647C11.1642 27.1418 9.69845 23.1576 12.9793 23.0509C13.2566 23.0154 13.5303 23.0438 13.7644 23.1505C14.1641 23.3284 14.6395 23.7873 14.6395 24.9469C14.6395 26.4837 13.2422 27.7785 11.762 29.1516C10.1882 30.6136 8.56042 32.1219 8.56042 33.9966C8.56042 34.8361 8.93136 35.5404 9.66243 36.0918C10.0118 36.355 10.3647 36.5186 10.5844 36.6076C10.5916 36.4688 10.6024 36.323 10.6204 36.1771C10.6348 36.0526 10.66 35.9317 10.6888 35.8143C9.82449 35.5831 9.34551 34.9677 9.33831 34.0499C9.3239 32.2428 10.7248 30.9338 12.0789 29.6674C13.4943 28.3477 14.9564 26.9781 14.9564 25.0074C14.9564 23.7624 14.4991 22.9762 13.6383 22.7308C12.7488 22.4782 11.5748 22.8731 11.0093 23.4209C11.0021 23.428 10.9913 23.4387 10.9841 23.4458C10.9553 23.4742 10.9301 23.4991 10.9085 23.5276C10.8977 23.5383 10.8905 23.5489 10.8797 23.5596C10.8509 23.5952 10.8221 23.6343 10.8005 23.6699C10.0982 24.6517 9.94334 26.5584 8.48479 26.224C9.89652 25.4165 8.98538 24.8651 10.6996 23.1968C10.7176 23.1754 10.7392 23.1576 10.7608 23.1363C10.7716 23.1256 10.7825 23.115 10.7969 23.1007C11.4703 22.4889 12.72 22.0727 13.7464 22.3644C15.1329 22.7592 15.3382 24.1857 15.3382 25.0039C15.3382 27.1382 13.8148 28.5611 12.3418 29.9377C10.9877 31.2041 9.70565 32.3994 9.72005 34.0428C9.72726 34.7934 10.091 35.2665 10.8005 35.4515C11.2182 34.363 12.241 33.7049 13.4835 32.9116C13.7788 32.7231 14.0813 32.5274 14.3982 32.3175C15.8388 31.35 16.5554 30.0018 16.8147 29.4184C16.397 27.5935 16.5698 25.9394 17.2577 24.609C17.8879 23.3889 17.3045 21.7632 17.8483 20.4933C17.571 20.5217 16.9948 20.4719 16.912 19.6004C16.8075 18.455 18.086 18.3447 18.5578 18.2202C18.6946 18.0708 18.9755 17.836 19.3573 17.5728L18.9359 16.7902C18.5218 16.2388 17.9167 16.5056 17.4882 15.7657C16.8759 14.7056 18.1112 14.1543 18.6298 13.9728C18.9503 13.6598 19.4365 13.4286 19.739 13.3041C19.5698 13.2258 19.4365 13.0693 19.4077 12.863C19.3717 12.6353 19.4833 12.4005 19.685 12.2832C20.0127 12.0946 20.4161 12.2511 20.5349 12.5855C20.5889 12.7385 20.5745 12.8986 20.5061 13.0337C20.823 12.9412 21.3452 12.8203 21.7954 12.863C22.314 12.678 23.6249 12.3436 23.8194 13.546C23.9562 14.3855 23.3152 14.5562 23.344 15.2392L23.4556 15.8297C23.7113 15.8013 23.9634 15.7942 24.2047 15.8119C24.3992 15.8262 24.5576 15.8617 24.8565 15.9685C25.1447 16.0716 25.5372 15.787 25.8901 15.6412C26.2431 15.4989 26.4555 15.4811 26.6212 16.2708C26.7905 17.0641 26.2179 17.619 26.2179 17.619L26.7437 18.2985C27.2731 18.9814 28.2742 19.5328 28.6308 20.6498C28.8612 21.3719 29.0989 22.2826 29.1241 23.0616H29.704C29.5995 22.9478 29.5419 22.8162 29.5419 22.6739V22.4426V21.9731C29.5419 21.1869 30.1865 20.5466 30.9788 20.5466H31.8828C32.6751 20.5466 33.3197 21.1869 33.3197 21.9731V22.4391V22.6739C33.3197 22.8162 33.2621 22.9478 33.1577 23.0616H45.9569C45.8524 22.9478 45.7948 22.8162 45.7948 22.6739V22.4426V21.9731C45.7948 21.1869 46.4395 20.5466 47.2318 20.5466H48.1357C48.928 20.5466 49.5726 21.1869 49.5726 21.9731V22.4391V22.6739C49.5726 22.8162 49.515 22.9478 49.4106 23.0616H50.6747V25.9999C51.132 26.1208 52.4357 26.2275 53.2208 26.0746C53.6422 25.1782 54.0671 24.4916 54.0671 24.4916C54.0671 24.4916 52.6158 24.3386 52.8319 22.6418C52.623 22.4142 52.6554 21.9268 52.7022 21.3861C52.785 20.4933 52.5546 20.319 52.5582 19.8423C52.569 19.4154 52.6482 19.1202 53.0119 18.7075C53.0732 18.5083 53.1884 18.1597 53.3613 17.8325C53.4945 17.5728 53.7538 17.2989 53.9735 17.0925V17.089C53.9735 17.089 53.671 16.4451 54.0671 15.8297C54.4597 15.2179 54.6325 15.3033 54.8846 15.5309C55.0791 15.7088 55.3816 15.9685 55.6121 16.0787L55.7742 15.2286C55.803 14.542 55.1619 14.3713 55.2988 13.5353C55.4969 12.333 56.8042 12.6673 57.3227 12.8523C57.7729 12.8096 58.2951 12.9306 58.612 13.0231C58.5436 12.8879 58.5292 12.7278 58.5832 12.5748C58.7021 12.2369 59.1054 12.0804 59.4331 12.2725C59.6348 12.3899 59.7465 12.6211 59.7104 12.8523C59.678 13.0586 59.5448 13.2152 59.3791 13.2934C59.6816 13.4179 60.1678 13.6491 60.4883 13.9622C61.0105 14.14 62.2422 14.695 61.63 15.755C61.205 16.4914 60.5964 16.2281 60.1822 16.7795L59.9878 17.1423C60.5063 17.2277 61.8244 17.5087 61.684 18.4799C61.5831 19.1878 60.8413 19.0739 60.4739 19.3229C60.4127 20.4648 60.229 20.8348 60.0202 21.4004C59.8005 21.9944 59.2135 22.4924 58.8785 22.898C58.5544 23.2928 58.4788 23.6699 58.4212 24.0434C58.3023 24.9647 59.2963 25.7615 59.9445 26.3271C61.2554 27.4726 61.8388 29.1267 62.4403 30.1974C62.9265 30.8555 63.6503 31.6523 64.7163 32.3069C64.8856 32.41 65.0513 32.5096 65.2133 32.6092C66.7295 33.527 67.8855 34.2313 68.3285 35.4444C69.0379 35.2594 69.3981 34.7898 69.4053 34.0392C69.4197 32.3958 68.1412 31.2006 66.7835 29.9342C65.3106 28.5575 63.7872 27.1346 63.7872 25.0003C63.7872 24.1857 63.9925 22.7557 65.379 22.3608C66.4054 22.0691 67.6514 22.4853 68.3249 23.0972C68.3393 23.1078 68.3501 23.1185 68.3645 23.1327C68.3861 23.1541 68.4077 23.1719 68.4257 23.1932C70.1436 24.8616 69.2324 25.4129 70.6442 26.2204C69.182 26.5548 69.0307 24.6481 68.3285 23.6663C68.3033 23.6308 68.2745 23.5952 68.2457 23.5561C68.2348 23.5454 68.2276 23.5347 68.2168 23.524C68.1916 23.4956 68.1664 23.4671 68.1412 23.4422C68.134 23.4351 68.1232 23.4244 68.116 23.4173C67.547 22.8695 66.3765 22.4711 65.487 22.7272C64.6227 22.9727 64.1689 23.7624 64.1689 25.0039C64.1689 26.9781 65.6311 28.3441 67.0464 29.6638C68.4005 30.9302 69.8014 32.2393 69.787 34.0464C69.7798 34.9606 69.3008 35.576 68.4401 35.8072C68.4689 35.9246 68.4905 36.042 68.505 36.17C68.523 36.3159 68.5338 36.4582 68.541 36.6005C68.757 36.5151 69.1136 36.3479 69.4629 36.0847C70.194 35.5333 70.5649 34.829 70.5649 33.9894C70.5649 32.1148 68.9371 30.6065 67.3633 29.1445C65.8832 27.7714 64.4858 26.4766 64.4858 24.9398C64.4858 23.7766 64.9612 23.3213 65.361 23.1434C65.5951 23.0367 65.8688 23.0082 66.1497 23.0438C69.4305 23.1505 67.9647 27.1311 71.0583 26.7576C68.1232 28.1378 67.4173 26.2453 67.2769 25.6086C67.122 24.9007 66.8123 23.9794 66.5206 23.7019C66.3045 23.4956 66.0812 23.4244 65.9156 23.4031C65.7751 23.4031 65.6383 23.4316 65.5194 23.4849C65.0945 23.677 64.8676 24.1786 64.8676 24.9398L64.8532 24.9292ZM59.4764 16.0503C59.5124 16.0716 59.5484 16.0965 59.5808 16.1179C59.6924 16.1926 59.8185 16.2779 59.8905 16.3455C60.0598 16.3491 60.2687 16.2353 60.4883 16.1428C60.78 15.9756 61.0574 15.8617 61.187 15.4704C61.3527 14.9653 61.0285 14.606 60.7764 14.4139C60.7981 14.4886 60.8089 14.5633 60.8053 14.6416C60.7584 15.5025 59.8905 15.5345 59.4764 16.0503ZM58.3996 15.5274C58.6913 15.6376 58.9614 15.7621 59.2027 15.8902C59.2819 15.7444 59.516 15.3424 59.7789 15.0863C60.1462 14.7341 60.3659 14.4673 59.7897 13.9977C59.516 13.7736 59.3503 13.6385 59.1162 13.4926C59.1234 13.7487 59.1162 14.1187 59.0334 14.4104C58.9434 14.7234 58.6228 15.2108 58.3996 15.5238V15.5274ZM57.1391 14.1649C57.1787 14.4886 57.1463 14.9333 57.1247 15.1574C57.3768 15.2037 57.6469 15.2748 57.9242 15.3602C57.9422 15.0293 57.9962 14.5384 58.1511 14.1009C58.2519 13.8163 58.486 13.5246 58.6589 13.3325C58.3888 13.3005 58.1727 13.3041 57.8233 13.3076C57.0743 13.3183 57.0815 13.6598 57.1391 14.1614V14.1649ZM55.9182 14.5456C56.0299 14.7554 56.1199 14.9724 56.2567 15.0756C56.3576 15.0685 56.5088 15.0827 56.6421 15.0934C56.6961 15.0969 56.7501 15.104 56.8078 15.1112C56.7573 14.4815 56.1415 13.8555 56.6277 13.1867C56.6745 13.1227 56.7285 13.0693 56.7933 13.0266C56.4728 13.0195 55.9938 13.0978 55.803 13.5922C55.6553 13.9728 55.803 14.2361 55.9218 14.5491L55.9182 14.5456ZM54.7766 16.5056C54.8414 16.4878 55.1151 16.2637 55.4248 16.2175C55.1079 16.0432 54.8306 15.8262 54.6866 15.5594C54.6109 15.9364 54.2616 16.3669 54.773 16.5056H54.7766ZM54.2004 22.7948C54.2004 22.7948 54.4165 22.4889 54.276 22.1083C54.132 21.7383 53.8943 21.564 53.9051 21.3506C53.9195 21.1407 54.1644 21.002 54.4165 20.7458C54.6722 20.4933 54.9062 19.9632 54.7802 19.7142C54.6613 19.4581 54.4849 19.2625 54.1824 19.1629C53.8835 19.0633 53.8006 18.9103 53.9339 18.6933C54.0635 18.4692 54.4093 18.4941 54.6433 18.7111C54.8702 18.9316 55.2304 19.419 55.1079 19.9988C54.9819 20.5822 54.6145 20.9984 54.4057 21.251C54.1896 21.5 54.4705 21.8344 54.9495 21.9411C55.4284 22.0549 55.7273 22.0158 55.7814 21.9517C55.8354 21.8877 55.8282 21.4822 55.9038 21.0197C55.983 20.5609 56.6961 20.0842 57.2723 20.0984C57.8521 20.1055 58.2015 20.2372 58.0754 20.6462C57.7477 21.1727 57.0887 20.5502 57.0887 20.5502C57.0887 20.5502 56.5269 20.8348 56.3288 21.283C56.1379 21.7383 56.2027 22.1972 55.9218 22.2754C55.6481 22.3502 55.0107 22.1474 54.845 22.3608C54.6685 22.5743 54.6145 22.8909 54.6145 22.8909C54.6145 22.8909 55.5077 24.1964 56.4116 23.6912C56.7825 23.4849 57.2903 22.6739 57.8918 22.3857C58.5544 22.0691 59.3251 21.6423 59.3251 20.6996C59.3251 20.6569 59.3107 20.3154 59.3107 20.1945C59.2675 19.5079 59.4656 19.3585 59.552 19.2447C59.8113 18.9067 59.9337 18.8249 59.9229 18.2664C60.4019 18.053 61.115 17.8218 61.5075 18.4656C61.7704 17.4554 60.0346 17.3202 59.6924 17.3522C59.5052 17.3807 59.6024 17.5977 59.5196 17.5941C59.4403 17.5906 59.3071 17.4554 59.1522 17.3238C59.073 17.2562 58.3131 16.7866 57.6973 16.6194C56.8474 16.3918 55.8642 16.374 55.6301 16.3953C55.396 16.4167 55.0395 16.5127 54.8234 16.7013C54.6397 16.8613 54.4345 17.0321 54.2148 17.2028C53.9951 17.3736 53.7358 17.6404 53.5737 17.9534C53.5125 18.0672 53.4585 18.1882 53.4153 18.302C53.8006 17.9641 54.0851 17.8431 54.2652 17.8289C54.3264 17.8289 54.4453 17.9 54.4453 17.9C54.4453 17.9 53.5881 18.3056 53.3144 18.8249C53.0335 19.3407 53.1884 20.0806 53.2784 20.536C53.3721 20.9948 53.2568 21.3861 53.1128 21.6814C52.9651 21.9766 52.8139 22.343 53.1236 22.6703C53.4297 22.9976 54.204 22.7948 54.204 22.7948H54.2004ZM50.6602 29.8168L52.2484 30.3397C52.2484 30.3397 52.2701 28.3156 52.9759 26.6402C51.8775 26.7647 50.6638 26.5548 50.6638 26.5548V29.8132L50.6602 29.8168ZM52.234 30.8626C51.8127 30.7239 50.6819 30.3682 50.6566 30.3575V33.6657C50.97 33.3207 51.7839 32.4954 52.3781 31.8195C52.2628 31.2788 52.2304 30.8626 52.2304 30.8626H52.234ZM46.1586 21.9838C46.1586 22.5743 46.4106 22.6632 46.4323 22.5707C46.4935 22.3359 46.6087 22.1545 46.7492 22.0869C46.7492 22.0869 46.7096 22.4106 46.778 22.6063C46.8284 22.7521 46.8788 22.8553 47.2209 22.8553C47.4838 22.8553 47.5703 22.4177 47.6315 22.1189C47.6387 22.0762 47.6675 22.0798 47.6747 22.1225C47.7359 22.4177 47.8692 22.8339 48.1213 22.8553C48.3734 22.8766 48.4742 22.7557 48.5246 22.6063C48.5931 22.4106 48.5535 22.0869 48.5535 22.0869C48.6831 22.1509 48.7911 22.311 48.856 22.5209C48.9136 22.7023 49.1837 22.5743 49.1837 21.9873C49.1837 21.4004 48.7083 20.9344 48.1213 20.9344H47.2174C46.6339 20.9344 46.155 21.4004 46.155 21.9873L46.1586 21.9838ZM29.9092 21.9838C29.9092 22.5743 30.1613 22.6632 30.1829 22.5707C30.2442 22.3359 30.3594 22.1545 30.4999 22.0869C30.4999 22.0869 30.4602 22.4106 30.5287 22.6063C30.5791 22.7521 30.6295 22.8553 30.9716 22.8553C31.2345 22.8553 31.321 22.4177 31.3822 22.1189C31.3894 22.0762 31.4182 22.0798 31.4254 22.1225C31.4866 22.4177 31.6199 22.8339 31.872 22.8553C32.1241 22.8766 32.2249 22.7557 32.2753 22.6063C32.3438 22.4106 32.3041 22.0869 32.3041 22.0869C32.4338 22.1509 32.5418 22.311 32.6067 22.5209C32.6643 22.7023 32.9344 22.5743 32.9344 21.9873C32.9344 21.4004 32.459 20.9344 31.872 20.9344H30.968C30.3846 20.9344 29.9056 21.4004 29.9056 21.9873L29.9092 21.9838ZM25.0366 16.1463C25.3391 16.3171 25.5372 16.655 25.5984 16.6977C26.1854 16.7511 25.9946 16.1712 26.063 15.7479C25.8109 15.9685 25.4328 16.0858 25.0366 16.1463ZM22.2888 15.1289C22.3464 15.1218 22.4004 15.1183 22.4544 15.1112C22.5877 15.1005 22.7389 15.0863 22.8398 15.0934C22.9766 14.9902 23.0667 14.7732 23.1783 14.5633C23.3008 14.2539 23.4412 13.9906 23.2972 13.6065C23.1063 13.1084 22.6273 13.0302 22.3068 13.0408C22.3716 13.0835 22.4256 13.1369 22.4724 13.2009C22.9586 13.8697 22.3428 14.4958 22.2924 15.1254L22.2888 15.1289ZM20.4377 13.3574C20.6105 13.5495 20.8446 13.8412 20.9455 14.1258C21.1003 14.5598 21.1544 15.0542 21.1724 15.3851C21.4497 15.2997 21.7198 15.2286 21.9719 15.1823C21.9503 14.9582 21.9178 14.5135 21.9575 14.1898C22.0187 13.6883 22.0223 13.3468 21.2732 13.3361C20.9239 13.3325 20.7114 13.329 20.4377 13.361V13.3574ZM19.3141 15.1112C19.577 15.3673 19.811 15.7693 19.8903 15.9151C20.128 15.787 20.4017 15.6625 20.6934 15.5523C20.4701 15.2357 20.1496 14.7519 20.0595 14.4388C19.9767 14.1472 19.9695 13.7772 19.9767 13.5211C19.7426 13.6669 19.577 13.8021 19.3033 14.0262C18.727 14.4993 18.9467 14.7626 19.3141 15.1147V15.1112ZM19.5121 16.1428C19.5445 16.1214 19.5806 16.0965 19.6166 16.0752C19.206 15.5629 18.3345 15.5274 18.2877 14.6665C18.2841 14.5882 18.2949 14.5135 18.3165 14.4388C18.0608 14.6309 17.7367 14.9902 17.9059 15.4953C18.0356 15.8831 18.3129 16.0005 18.6046 16.1677C18.8243 16.2602 19.0332 16.374 19.2024 16.3704C19.2744 16.3028 19.4005 16.221 19.5121 16.1428ZM19.044 18.1704C19.3105 18.1277 19.7786 18.2736 19.116 19.1308C18.5182 19.9028 18.0212 20.7423 18.1472 22.0122C18.2697 23.2857 18.7703 23.9047 18.3165 25.1461C17.8627 26.3876 18.5506 27.903 18.5506 27.903C18.5506 27.903 18.8531 27.1631 19.062 26.4445C19.5518 28.3903 20.6178 29.3686 20.6178 29.3686C20.6178 29.3686 20.344 28.4437 20.877 26.5406C21.248 29.3899 24.482 29.1409 26.3439 30.6492C27.1722 31.318 27.9213 32.2428 28.4147 32.908V23.0794H28.7136C28.6668 22.7308 28.5695 22.1083 28.3823 21.4502C28.105 20.479 27.662 19.4972 26.7329 18.5475C25.8073 17.5906 25.7569 17.4269 25.4688 16.8933C25.1807 16.3562 24.6909 16.093 24.0606 16.0503C23.4304 16.0076 21.3848 16.3135 19.0404 18.1739L19.044 18.1704ZM18.6406 19.3763C18.7595 19.2304 19.2024 18.7253 19.1736 18.455C18.9683 18.3909 16.8219 18.4336 17.0812 19.6111C17.5854 18.8498 18.4821 19.3656 18.6406 19.3763ZM17.4197 39.3182C20.4305 40.5419 19.7642 43.907 19.7354 44.3837C19.6742 45.4615 20.6358 45.6074 21.4389 46.4184C22.5085 47.5034 23.4916 48.6275 23.6069 48.6666C23.9238 48.72 26.4231 49.0081 26.578 48.905C25.8613 47.386 22.4869 46.1374 21.7738 44.7537C21.2624 43.7647 21.2516 42.7616 21.3668 41.9932C21.4893 41.2284 22.2564 37.038 17.4161 39.3182H17.4197ZM24.8926 35.8463C24.5576 35.6791 24.3091 35.608 24.3091 35.608C20.3008 37.5787 18.5974 36.355 16.7355 39.119C16.7967 39.1297 16.8687 39.1439 16.9444 39.1617C17.1532 38.9589 17.5926 38.5961 18.3165 38.2546C19.4005 37.7388 20.4809 37.5609 21.8638 37.1589C23.1459 36.7926 24.3271 36.2127 24.889 35.8463H24.8926ZM50.0732 41.545C49.9724 41.5593 49.8679 41.5699 49.7671 41.5735V45.3121H46.2378L46.2234 45.2659L46.2018 45.1876L46.1766 45.0952L46.155 45.0133L46.1297 44.928L46.1045 44.839L46.0793 44.7572L46.0541 44.6718L46.0289 44.5865L46.0037 44.5011L45.9785 44.4122L45.9533 44.3268L45.9461 44.2983H42.2295L42.2187 44.3268L42.1935 44.4122L42.1646 44.5011L42.1358 44.5865L42.1106 44.6718L42.0818 44.7572L42.0566 44.8426L42.0278 44.9315L41.999 45.0169L41.9738 45.0987L41.945 45.1912L41.9198 45.2695L41.9054 45.3157H37.4901V45.2695L37.4757 45.1912L37.4649 45.0987L37.4541 45.0169L37.4433 44.9315L37.4325 44.8426L37.4217 44.7608L37.4109 44.6754L37.4001 44.59L37.3893 44.5047L37.3785 44.4157L37.3676 44.3303L37.3568 44.2414L37.346 44.156L37.3352 44.0707L37.3244 43.9853L37.3136 43.8964L37.3028 43.8145L37.2992 43.7719H33.5934V43.8145H33.5898L33.579 43.8964L33.5682 43.9853L33.5574 44.0707L33.5466 44.156L33.5358 44.2414L33.525 44.3303L33.5142 44.4157L33.5034 44.5047L33.4926 44.59L33.4818 44.6754L33.471 44.7608L33.4602 44.8461L33.4494 44.9351L33.4386 45.0205L33.4278 45.1023L33.417 45.1948L33.4062 45.273C33.3918 45.2446 33.3773 45.2197 33.3593 45.1948C33.3413 45.1627 33.3197 45.1307 33.2981 45.1023C33.2765 45.0738 33.2585 45.0454 33.2369 45.0205C33.2117 44.9884 33.1793 44.96 33.1505 44.9351C33.118 44.9031 33.0784 44.8746 33.0424 44.8461C32.9992 44.8141 32.956 44.7892 32.9092 44.7643C32.8443 44.7288 32.7759 44.7003 32.7075 44.679C32.6067 44.6469 32.495 44.6327 32.3834 44.6327C32.2717 44.6327 32.1637 44.6505 32.0592 44.679C31.9872 44.7003 31.9188 44.7288 31.8504 44.7643C31.8036 44.7892 31.7603 44.8177 31.7171 44.8461C31.6775 44.8746 31.6415 44.9031 31.6091 44.9351C31.5803 44.9635 31.5515 44.992 31.5263 45.0205C31.5046 45.0454 31.483 45.0738 31.465 45.1023C31.4434 45.1307 31.4218 45.1627 31.4038 45.1948C31.3894 45.2197 31.375 45.2481 31.3642 45.273C31.357 45.2872 31.3462 45.305 31.339 45.3193H29.3006V45.0205V44.7608V44.59V43.8181V43.5584V43.4766V43.0497V42.9644V42.879V41.9399V41.8545V41.7691V41.6055C29.1962 41.6019 29.0953 41.5913 28.9945 41.577V44.3481V47.7204C28.9945 49.3212 30.0137 50.1038 31.4902 50.1038H47.5595C49.036 50.1038 50.0552 49.3212 50.0552 47.7204V43.5549V41.5593L50.0732 41.545ZM34.4938 41.7549L34.4902 41.8403L34.4866 41.9257L34.483 42.011V42.0964L34.4758 42.1818V42.2671L34.465 42.3561V42.4415L34.4578 42.5233L36.4889 42.5268L36.4853 42.4415V42.3561L36.4781 42.2671V42.1818L36.4709 42.0964V42.011L36.4637 41.9257L36.4601 41.8403L36.4565 41.7549L36.4529 41.666V41.5806L36.4457 41.4988V41.4099L36.4385 41.328V41.2427L36.4313 41.1537L36.4277 41.0684V40.9865L36.4205 40.8976V40.8122L36.4133 40.7233V40.6415L36.4061 40.5561V40.4707L36.3989 40.3889L36.3953 40.3036V40.2146H36.3917V40.1328L36.3845 40.0474V39.9621H36.3809L34.6054 39.9585V39.9656V40.051L34.5946 40.1364V40.2182H34.591V40.3071H34.5874V40.3925H34.5838V40.4743L34.5766 40.5597V40.645L34.5694 40.7269V40.8158L34.5586 40.9012V40.9901L34.5514 41.0719V41.1573H34.5478V41.2462L34.537 41.3316V41.4134L34.5262 41.5023V41.5842L34.519 41.6695V41.7585L34.4938 41.7549ZM36.4277 39.8091V39.7842V39.2719V39.1652H34.4938V39.2719V39.7842V39.8091H36.4277ZM34.2129 42.7438L34.2057 42.7865L34.1949 42.8683L34.1805 42.9537L34.166 43.0391L34.1552 43.1244L34.1408 43.2098L34.1264 43.2952L34.112 43.3841L34.1012 43.4695L34.0904 43.5513L34.0832 43.6011H36.8346V43.5513H36.8274L36.8166 43.4695L36.8058 43.3841L36.795 43.2952L36.7842 43.2098L36.7734 43.1244L36.7626 43.0426L36.7518 42.9573L36.741 42.8719L36.7338 42.7901V42.7474H34.1985L34.2129 42.7438ZM42.0998 43.7185V43.8074V44.1276H46.1117V43.8074V43.7149H42.0998V43.7185ZM45.8272 43.53V43.4695V43.0426V42.9573V42.8719V42.7474H42.4131V42.8719V42.9573V43.0426V43.4731V43.5335H45.8272V43.53ZM61.666 39.2969C56.8258 37.0167 57.5928 41.2106 57.7153 41.9719C57.8305 42.7403 57.8197 43.7434 57.3083 44.7323C56.5953 46.1125 53.2172 47.3647 52.5041 48.8836C52.6626 48.9868 55.1583 48.6986 55.4753 48.6453C55.5905 48.6062 56.5773 47.4821 57.6433 46.3971C58.4428 45.5861 59.4079 45.4402 59.3467 44.3624C59.3179 43.8857 58.6516 40.5205 61.6624 39.2969H61.666ZM62.3502 39.1012C60.3371 36.7107 59.1414 36.7605 55.1871 34.3132C55.1871 34.3132 54.9134 34.459 54.5029 34.7329C55.4825 35.6222 59.552 36.6076 62.1414 39.1439C62.2206 39.1261 62.289 39.1119 62.3502 39.1012ZM68.026 40.236C67.8783 39.7344 67.9503 39.1617 68.0332 38.4965C68.116 37.8277 68.2096 37.07 68.1052 36.2056C67.9251 34.6973 66.6935 33.9539 64.9936 32.9258C64.8316 32.8262 64.6659 32.7266 64.4966 32.6235C63.798 32.1966 62.4475 30.9373 62.2962 30.795C61.4067 29.9484 61.115 28.2801 60.0238 27.1916C59.5988 26.7682 59.3143 26.4765 58.8965 25.9501C57.6649 24.5805 58.0286 23.4956 58.3599 22.994C58.5616 22.6916 58.9758 22.3039 58.9254 22.2541C58.9001 22.2292 58.6769 22.4426 58.4572 22.5707C58.2231 22.7059 58.0394 22.7806 57.6973 23.1007C57.5604 23.2323 57.42 23.3604 57.2795 23.4885C56.7393 23.9794 55.6481 25.0074 54.2976 23.1754C54.2976 23.1754 53.779 23.3426 53.2928 23.1292C53.4297 24.2924 54.3156 24.1679 55.288 24.2533C55.0539 24.3422 54.845 24.4454 54.5137 24.4881C54.2688 25.3169 52.3997 27.2769 52.7958 31.3144L53.1596 30.8306C53.12 28.056 53.9555 26.5726 54.8738 25.2742C54.8954 25.2422 54.9459 25.2742 54.9314 25.3098C54.0923 27.0493 53.7142 28.2374 53.9267 29.7065C54.8594 27.9848 55.3024 27.6398 55.8822 27.469C54.2796 28.8314 54.8666 29.8204 52.4753 32.6021C52.2556 32.8582 51.2761 33.993 50.9267 34.3985C50.8331 34.5052 50.7431 34.612 50.653 34.7116C50.4153 34.9784 50.2029 35.2131 50.066 35.3519V35.2558V34.2918V23.6201H29.0053V33.2282V33.4487V34.2278C29.0053 34.2278 29.0017 34.2278 28.9981 34.2278V35.7823C28.9981 35.7823 28.7784 35.3874 28.4111 34.8147C28.2886 34.6226 28.1518 34.4128 27.9969 34.1887C27.1218 32.9009 25.8037 31.2041 24.5576 30.5781C23.5565 30.0765 22.3968 30.0267 21.0679 28.6002C20.9563 29.2156 21.2732 30.2686 21.2732 30.2686C21.2732 30.2686 19.6778 29.9057 19.0224 27.9279C18.8567 28.5326 18.7306 29.2725 17.5314 29.9093C16.9156 30.8306 16.1665 31.4211 15.5759 31.8373C15.2877 32.1183 14.96 32.3958 14.5819 32.6484C14.2614 32.8618 13.9552 33.0574 13.6599 33.2495C12.1942 34.1851 11.1318 34.8645 10.9661 36.2376C10.8617 37.1056 10.9553 37.8633 11.0381 38.5285C11.121 39.1901 11.193 39.7664 11.0454 40.268C10.8797 40.8371 10.1738 41.4703 9.60841 41.9826C9.32751 42.2351 9.06461 42.4735 8.95657 42.6264C8.80891 42.8327 8.85933 43.3912 8.94216 43.964C9.10422 43.6509 9.38153 43.4446 9.60841 43.3201C9.73086 43.2525 9.87131 43.3806 9.81369 43.5086C9.61201 43.9533 9.29149 44.7786 9.17625 45.7319C9.18345 45.9596 9.18345 46.205 9.18345 46.4647C9.18345 47.1833 9.18345 47.9943 9.38153 48.3856C9.44635 48.5172 9.55439 48.656 9.68404 48.8018C9.73806 48.8587 9.79928 48.9121 9.86771 48.9619C10.073 49.1184 10.3539 49.2038 10.6492 49.314C10.7572 49.3461 10.8797 49.3959 11.0093 49.4634C11.0418 49.4777 11.0742 49.4919 11.1066 49.5097C11.4991 49.7125 11.7836 49.869 12.0753 49.933C12.2878 49.9686 12.4931 49.9579 12.6804 49.8903C12.702 49.8832 12.72 49.8761 12.738 49.869C13.0153 49.716 13.1269 49.4279 13.379 49.4279C13.4114 49.4243 13.4439 49.4243 13.4799 49.4279H13.4871C13.7788 49.4421 14.0273 49.499 14.1533 49.3425C14.1965 49.2891 14.2289 49.2322 14.2506 49.1718C14.2506 49.1575 14.2578 49.1362 14.2614 49.122C14.3046 48.6809 14.0237 48.6346 13.2494 48.3785C12.4751 48.1259 10.9733 48.005 10.8041 46.7066C10.642 45.4046 10.4511 44.1916 11.7008 43.0569C12.9469 41.9185 14.8448 42.1071 15.6479 39.0407C16.469 35.4337 18.2985 34.8752 18.2985 34.8752C18.2985 34.8752 17.1749 36.0277 16.9048 37.9522C18.6478 36.1772 20.8806 36.4866 23.0271 35.0531C20.7042 33.5732 22.4796 30.5282 22.4796 30.5282C22.4796 30.5282 23.0487 32.8298 24.6189 33.7369C25.4328 34.2064 26.189 34.8503 26.7509 35.6649C27.0642 36.1167 27.3163 36.6182 27.4855 37.1732C27.8241 38.2937 27.8601 39.6561 28.4003 40.3498C28.5515 40.5454 28.746 40.6842 28.9945 40.7553C29.0881 40.7802 29.189 40.798 29.3006 40.8016C29.3078 40.8016 29.3114 40.8016 29.315 40.8016C29.3798 40.8016 29.4483 40.8016 29.5167 40.8016C29.7688 40.7944 30.1649 40.7767 30.2982 40.5134C30.3846 40.3391 30.309 40.1328 30.2514 39.9621C30.1829 39.7593 30.1217 39.553 30.0533 39.3502C29.8588 38.7739 29.6499 37.5289 29.6355 37.5076H29.7364H29.794H30.201H33.543H35.3149V37.5147V37.5716V37.9664L35.2645 37.9985L35.1276 38.0838L34.9944 38.1656L34.8539 38.2546L34.7171 38.34L34.5802 38.4253L34.483 38.4858H34.7891V38.9945H36.136V38.4858H36.4169L36.3233 38.4253L36.19 38.34L36.0568 38.2546L35.9199 38.1656L35.7903 38.0838L35.657 37.9985L35.5958 37.9593V37.504H40.4756H49.0072H49.1153H49.3854C49.3638 37.5609 49.0432 39.183 49.0036 39.3289C48.946 39.5352 48.874 39.7379 48.8055 39.9407C48.7479 40.1115 48.6687 40.3178 48.7587 40.4921C48.892 40.7553 49.2881 40.7731 49.5402 40.7802C49.6086 40.7802 49.6735 40.7802 49.7419 40.7802C49.7455 40.7802 49.7491 40.7802 49.7563 40.7802C49.8679 40.7767 49.9688 40.7589 50.0624 40.734C50.3109 40.6664 50.5018 40.5277 50.653 40.3391C51.2004 39.649 51.2329 38.2795 51.575 37.1554C51.7587 36.5435 52.0468 35.9957 52.4033 35.5119C52.9543 34.7614 53.671 34.1637 54.4381 33.7191C56.0083 32.812 58.6841 31.7946 59.1414 28.7212C59.3683 30.8164 58.2123 32.4741 56.1739 33.8436C57.7081 35.2523 60.0814 35.7076 62.2026 38.1941C61.9613 36.17 60.7584 34.8574 60.7584 34.8574C60.7584 34.8574 62.5915 35.4159 63.409 39.0229C64.2121 42.0857 66.1101 41.9007 67.3561 43.0391C68.6058 44.1774 68.4149 45.3868 68.2529 46.6888C68.0836 47.9872 66.5818 48.1081 65.8075 48.3607C65.0332 48.6168 64.7523 48.6631 64.7956 49.1042C64.7956 49.1184 64.8028 49.1397 64.8064 49.154C64.828 49.2144 64.8604 49.2714 64.9036 49.3247C65.0296 49.4812 65.2781 49.4243 65.5698 49.4101H65.577C65.6131 49.403 65.6455 49.403 65.6743 49.4101C65.93 49.4101 66.038 49.6982 66.3189 49.8512C66.3369 49.8583 66.3549 49.8654 66.3765 49.8725C66.5638 49.9437 66.7691 49.9543 66.9816 49.9152C67.2733 49.8547 67.5578 49.6982 67.9503 49.4919C67.9827 49.4741 68.0152 49.4599 68.0476 49.4457C68.1772 49.3781 68.2997 49.3318 68.4077 49.2963C68.703 49.186 68.9839 49.1006 69.1892 48.9441C69.2576 48.8943 69.3189 48.8409 69.3729 48.784C69.5061 48.6382 69.6106 48.4959 69.679 48.3678C69.8771 47.9765 69.8771 47.1655 69.8771 46.4469C69.8771 46.1872 69.8771 45.9418 69.8879 45.7141C69.7762 44.7608 69.4521 43.9319 69.2504 43.4908C69.1928 43.3628 69.3333 43.2347 69.4557 43.3023C69.6862 43.4268 69.9599 43.6331 70.122 43.9462C70.2048 43.377 70.2552 42.815 70.1076 42.6086C69.9995 42.4557 69.733 42.2173 69.4557 41.9648C68.8903 41.4525 68.1844 40.8194 68.0188 40.2502L68.026 40.236Z" fill="white"/>
</svg>
